<svg width="202" height="68" viewBox="0 0 202 68" fill="none" xmlns="http://www.w3.org/2000/svg">
<path d="M201.741 54.5515L199.15 54.8341C199.077 54.5724 198.949 54.3264 198.765 54.0961C198.587 53.8658 198.347 53.68 198.043 53.5387C197.74 53.3974 197.368 53.3267 196.928 53.3267C196.337 53.3267 195.84 53.4549 195.437 53.7114C195.039 53.9679 194.842 54.3002 194.848 54.7085C194.842 55.0592 194.971 55.3444 195.232 55.5642C195.499 55.7841 195.939 55.9646 196.551 56.106L198.608 56.5456C199.749 56.7916 200.597 57.1816 201.152 57.7154C201.712 58.2493 201.995 58.9481 202 59.8117C201.995 60.5706 201.772 61.2406 201.333 61.8215C200.898 62.3973 200.294 62.8474 199.519 63.1719C198.744 63.4964 197.855 63.6587 196.85 63.6587C195.374 63.6587 194.186 63.3499 193.285 62.7323C192.385 62.1094 191.849 61.2432 191.676 60.1336L194.447 59.8666C194.573 60.411 194.84 60.8218 195.248 61.0992C195.656 61.3766 196.188 61.5154 196.842 61.5154C197.517 61.5154 198.059 61.3766 198.467 61.0992C198.881 60.8218 199.087 60.479 199.087 60.0708C199.087 59.7253 198.954 59.4401 198.687 59.215C198.425 58.9899 198.017 58.8172 197.462 58.6968L195.405 58.265C194.248 58.0242 193.393 57.6186 192.838 57.0481C192.283 56.4724 192.008 55.7448 192.013 54.8655C192.008 54.1223 192.21 53.4785 192.618 52.9341C193.032 52.3846 193.605 51.9606 194.337 51.6623C195.075 51.3587 195.926 51.2069 196.889 51.2069C198.302 51.2069 199.414 51.5079 200.226 52.1098C201.042 52.7117 201.547 53.5256 201.741 54.5515Z" fill="#5E718F"/>
<path d="M190.005 51.3639V53.5622H183.073V51.3639H190.005ZM184.784 48.4747H187.626V59.796C187.626 60.178 187.684 60.4712 187.799 60.6753C187.92 60.8742 188.077 61.0103 188.27 61.0835C188.464 61.1568 188.679 61.1935 188.914 61.1935C189.092 61.1935 189.254 61.1804 189.401 61.1542C189.553 61.128 189.668 61.1045 189.746 61.0835L190.225 63.3054C190.073 63.3577 189.856 63.4153 189.574 63.4781C189.296 63.5409 188.956 63.5776 188.553 63.588C187.841 63.609 187.2 63.5017 186.629 63.2661C186.059 63.0254 185.606 62.6537 185.271 62.1513C184.941 61.6488 184.779 61.0207 184.784 60.267V48.4747Z" fill="#5E718F"/>
<path d="M173.353 56.3572V63.4232H170.511V51.3639H173.228V53.4131H173.369C173.646 52.7379 174.089 52.2014 174.696 51.8036C175.308 51.4058 176.065 51.2069 176.965 51.2069C177.797 51.2069 178.522 51.3849 179.14 51.7408C179.762 52.0967 180.244 52.6122 180.584 53.2874C180.93 53.9626 181.1 54.7818 181.094 55.7448V63.4232H178.252V56.1845C178.252 55.3784 178.043 54.7477 177.624 54.2924C177.211 53.837 176.638 53.6093 175.905 53.6093C175.408 53.6093 174.965 53.7192 174.578 53.9391C174.196 54.1537 173.895 54.4651 173.675 54.8734C173.461 55.2816 173.353 55.7762 173.353 56.3572Z" fill="#5E718F"/>
<path d="M162.745 63.6587C161.536 63.6587 160.491 63.4075 159.612 62.905C158.738 62.3973 158.065 61.6802 157.594 60.7538C157.123 59.8221 156.888 58.7256 156.888 57.4642C156.888 56.2237 157.123 55.1351 157.594 54.1982C158.071 53.256 158.735 52.5233 159.588 51.9999C160.442 51.4712 161.444 51.2069 162.595 51.2069C163.339 51.2069 164.04 51.3273 164.7 51.5681C165.364 51.8036 165.95 52.17 166.458 52.6672C166.971 53.1644 167.374 53.7978 167.667 54.5672C167.96 55.3313 168.107 56.2421 168.107 57.2993V58.1708H158.222V56.2551H165.383C165.377 55.7108 165.26 55.2267 165.029 54.8027C164.799 54.3735 164.477 54.0359 164.064 53.7899C163.655 53.5439 163.179 53.4209 162.635 53.4209C162.054 53.4209 161.543 53.5622 161.104 53.8449C160.664 54.1223 160.321 54.4887 160.075 54.944C159.834 55.3941 159.711 55.8888 159.706 56.4279V58.1001C159.706 58.8015 159.834 59.4034 160.091 59.9059C160.347 60.4031 160.706 60.7852 161.167 61.0521C161.627 61.3138 162.166 61.4447 162.784 61.4447C163.197 61.4447 163.572 61.3871 163.907 61.272C164.242 61.1516 164.532 60.9762 164.778 60.7459C165.024 60.5156 165.21 60.2304 165.335 59.8902L167.989 60.1885C167.822 60.8899 167.502 61.5023 167.031 62.0257C166.565 62.5438 165.969 62.9469 165.241 63.2347C164.514 63.5174 163.681 63.6587 162.745 63.6587Z" fill="#5E718F"/>
<path d="M137.564 63.4232V51.3639H140.281V53.4131H140.422C140.673 52.7222 141.089 52.1831 141.67 51.7957C142.251 51.4032 142.945 51.2069 143.751 51.2069C144.567 51.2069 145.256 51.4058 145.816 51.8036C146.381 52.1961 146.779 52.7326 147.009 53.4131H147.135C147.402 52.7431 147.852 52.2092 148.485 51.8114C149.124 51.4084 149.88 51.2069 150.754 51.2069C151.864 51.2069 152.769 51.5576 153.47 52.259C154.172 52.9603 154.523 53.9836 154.523 55.3287V63.4232H151.673V55.7684C151.673 55.0199 151.474 54.4729 151.076 54.1275C150.678 53.7768 150.191 53.6015 149.616 53.6015C148.93 53.6015 148.393 53.8161 148.006 54.2453C147.624 54.6692 147.433 55.2214 147.433 55.9018V63.4232H144.646V55.6506C144.646 55.0278 144.457 54.5305 144.081 54.1589C143.709 53.7873 143.222 53.6015 142.62 53.6015C142.212 53.6015 141.84 53.7062 141.505 53.9155C141.17 54.1196 140.904 54.4101 140.705 54.787C140.506 55.1586 140.406 55.593 140.406 56.0903V63.4232H137.564Z" fill="#5E718F"/>
<path d="M123.746 67.9454V51.3639H126.541V53.3581H126.706C126.853 53.065 127.059 52.7536 127.326 52.4238C127.593 52.0888 127.955 51.8036 128.41 51.5681C128.865 51.3273 129.446 51.2069 130.153 51.2069C131.084 51.2069 131.925 51.4451 132.673 51.9214C133.427 52.3924 134.023 53.0912 134.463 54.0176C134.908 54.9388 135.13 56.0693 135.13 57.4092C135.13 58.7335 134.913 59.8588 134.479 60.7852C134.044 61.7116 133.453 62.4182 132.704 62.905C131.956 63.3918 131.108 63.6351 130.161 63.6351C129.47 63.6351 128.897 63.52 128.441 63.2897C127.986 63.0594 127.62 62.782 127.342 62.4575C127.07 62.1277 126.858 61.8163 126.706 61.5232H126.588V67.9454H123.746ZM126.533 57.3935C126.533 58.1734 126.643 58.8565 126.863 59.4427C127.088 60.0289 127.41 60.4869 127.829 60.8166C128.253 61.1411 128.766 61.3034 129.368 61.3034C129.996 61.3034 130.522 61.1359 130.946 60.8009C131.37 60.4607 131.689 59.9975 131.904 59.4113C132.123 58.8198 132.233 58.1472 132.233 57.3935C132.233 56.6451 132.126 55.9804 131.911 55.3994C131.697 54.8184 131.378 54.363 130.954 54.0333C130.53 53.7035 130.001 53.5387 129.368 53.5387C128.761 53.5387 128.245 53.6983 127.821 54.0176C127.397 54.3369 127.075 54.7844 126.855 55.3601C126.641 55.9359 126.533 56.6137 126.533 57.3935Z" fill="#5E718F"/>
<path d="M115.556 63.6587C114.378 63.6587 113.358 63.3996 112.494 62.8814C111.63 62.3633 110.96 61.6384 110.484 60.7067C110.013 59.775 109.777 58.6864 109.777 57.4407C109.777 56.1949 110.013 55.1037 110.484 54.1668C110.96 53.2299 111.63 52.5023 112.494 51.9842C113.358 51.466 114.378 51.2069 115.556 51.2069C116.734 51.2069 117.754 51.466 118.618 51.9842C119.481 52.5023 120.149 53.2299 120.62 54.1668C121.096 55.1037 121.334 56.1949 121.334 57.4407C121.334 58.6864 121.096 59.775 120.62 60.7067C120.149 61.6384 119.481 62.3633 118.618 62.8814C117.754 63.3996 116.734 63.6587 115.556 63.6587ZM115.572 61.3819C116.21 61.3819 116.744 61.2065 117.173 60.8559C117.602 60.4999 117.922 60.0237 118.131 59.427C118.346 58.8303 118.453 58.1656 118.453 57.4328C118.453 56.6948 118.346 56.0275 118.131 55.4308C117.922 54.8289 117.602 54.3499 117.173 53.994C116.744 53.6381 116.21 53.4602 115.572 53.4602C114.917 53.4602 114.373 53.6381 113.939 53.994C113.509 54.3499 113.187 54.8289 112.973 55.4308C112.763 56.0275 112.659 56.6948 112.659 57.4328C112.659 58.1656 112.763 58.8303 112.973 59.427C113.187 60.0237 113.509 60.4999 113.939 60.8559C114.373 61.2065 114.917 61.3819 115.572 61.3819Z" fill="#5E718F"/>
<path d="M107.373 47.3442V63.4232H104.531V47.3442H107.373Z" fill="#5E718F"/>
<path d="M96.7644 63.6587C95.5553 63.6587 94.5111 63.4075 93.6318 62.905C92.7577 62.3973 92.0851 61.6802 91.6141 60.7538C91.143 59.8221 90.9075 58.7256 90.9075 57.4642C90.9075 56.2237 91.143 55.1351 91.6141 54.1982C92.0904 53.256 92.7551 52.5233 93.6082 51.9999C94.4614 51.4712 95.4637 51.2069 96.6152 51.2069C97.3584 51.2069 98.0598 51.3273 98.7193 51.5681C99.384 51.8036 99.9702 52.17 100.478 52.6672C100.991 53.1644 101.394 53.7978 101.687 54.5672C101.98 55.3313 102.127 56.2421 102.127 57.2993V58.1708H92.2422V56.2551H99.4023C99.3971 55.7108 99.2793 55.2267 99.049 54.8027C98.8187 54.3735 98.4968 54.0359 98.0833 53.7899C97.6751 53.5439 97.1988 53.4209 96.6544 53.4209C96.0735 53.4209 95.5632 53.5622 95.1235 53.8449C94.6838 54.1223 94.341 54.4887 94.095 54.944C93.8542 55.3941 93.7312 55.8888 93.726 56.4279V58.1001C93.726 58.8015 93.8542 59.4034 94.1107 59.9059C94.3672 60.4031 94.7257 60.7852 95.1863 61.0521C95.6469 61.3138 96.186 61.4447 96.8036 61.4447C97.2171 61.4447 97.5913 61.3871 97.9263 61.272C98.2613 61.1516 98.5518 60.9762 98.7978 60.7459C99.0438 60.5156 99.2296 60.2304 99.3552 59.8902L102.009 60.1885C101.841 60.8899 101.522 61.5023 101.051 62.0257C100.585 62.5438 99.9885 62.9469 99.261 63.2347C98.5335 63.5174 97.7013 63.6587 96.7644 63.6587Z" fill="#5E718F"/>
<path d="M89.8691 51.3639L85.5746 63.4231H82.4342L78.1396 51.3639H81.1702L83.9416 60.322H84.0672L86.8465 51.3639H89.8691Z" fill="#5E718F"/>
<path d="M71.6762 63.6587C70.4672 63.6587 69.423 63.4075 68.5437 62.905C67.6696 62.3973 66.997 61.6802 66.5259 60.7538C66.0549 59.8221 65.8193 58.7256 65.8193 57.4642C65.8193 56.2237 66.0549 55.1351 66.5259 54.1982C67.0022 53.256 67.667 52.5233 68.5201 51.9999C69.3732 51.4712 70.3756 51.2069 71.5271 51.2069C72.2703 51.2069 72.9717 51.3273 73.6311 51.5681C74.2959 51.8036 74.8821 52.17 75.3898 52.6672C75.9027 53.1644 76.3057 53.7978 76.5988 54.5672C76.8919 55.3313 77.0385 56.2421 77.0385 57.2993V58.1708H67.154V56.2551H74.3142C74.309 55.7108 74.1912 55.2267 73.9609 54.8027C73.7306 54.3735 73.4087 54.0359 72.9952 53.7899C72.587 53.5439 72.1107 53.4209 71.5663 53.4209C70.9853 53.4209 70.475 53.5622 70.0354 53.8449C69.5957 54.1223 69.2529 54.4887 69.0069 54.944C68.7661 55.3941 68.6431 55.8888 68.6379 56.4279V58.1001C68.6379 58.8015 68.7661 59.4034 69.0226 59.9059C69.279 60.4031 69.6376 60.7852 70.0982 61.0521C70.5588 61.3138 71.0979 61.4447 71.7155 61.4447C72.129 61.4447 72.5032 61.3871 72.8382 61.272C73.1732 61.1516 73.4637 60.9762 73.7097 60.7459C73.9557 60.5156 74.1415 60.2304 74.2671 59.8902L76.9207 60.1885C76.7532 60.8899 76.434 61.5023 75.9629 62.0257C75.4971 62.5438 74.9004 62.9469 74.1729 63.2347C73.4453 63.5174 72.6131 63.6587 71.6762 63.6587Z" fill="#5E718F"/>
<path d="M55.8916 63.4232H50.443V47.3442H56.0015C57.5979 47.3442 58.9692 47.6661 60.1155 48.3099C61.267 48.9484 62.1515 49.867 62.7692 51.0656C63.3868 52.2642 63.6956 53.6983 63.6956 55.368C63.6956 57.0429 63.3842 58.4822 62.7613 59.6861C62.1437 60.8899 61.2513 61.8137 60.0841 62.4575C58.9221 63.1013 57.5246 63.4232 55.8916 63.4232ZM53.3557 60.903H55.7503C56.8704 60.903 57.8047 60.6988 58.5531 60.2906C59.3016 59.8771 59.8643 59.2621 60.2411 58.4456C60.618 57.6238 60.8064 56.598 60.8064 55.368C60.8064 54.138 60.618 53.1173 60.2411 52.3061C59.8643 51.4896 59.3068 50.8798 58.5688 50.4768C57.8361 50.0685 56.9254 49.8644 55.8367 49.8644H53.3557V60.903Z" fill="#5E718F"/>
<path d="M188.251 34.2486V41.3146H185.409V29.2553H188.125V31.3045H188.266C188.544 30.6293 188.986 30.0928 189.593 29.695C190.206 29.2972 190.962 29.0983 191.862 29.0983C192.694 29.0983 193.419 29.2763 194.037 29.6322C194.66 29.9881 195.141 30.5037 195.482 31.1789C195.827 31.854 195.997 32.6732 195.992 33.6362V41.3146H193.15V34.0759C193.15 33.2699 192.94 32.6392 192.522 32.1838C192.108 31.7284 191.535 31.5008 190.802 31.5008C190.305 31.5008 189.863 31.6107 189.476 31.8305C189.093 32.0451 188.792 32.3565 188.573 32.7648C188.358 33.173 188.251 33.6676 188.251 34.2486Z" fill="#5E718F"/>
<path d="M174.437 45.8368C174.05 45.8368 173.691 45.8054 173.361 45.7426C173.037 45.685 172.778 45.617 172.584 45.5384L173.243 43.3244C173.657 43.4448 174.026 43.5024 174.35 43.4972C174.675 43.4919 174.96 43.3899 175.206 43.191C175.457 42.9973 175.669 42.6728 175.842 42.2174L176.086 41.5658L171.713 29.2553H174.727L177.507 38.3626H177.632L180.419 29.2553H183.442L178.614 42.7749C178.389 43.4134 178.09 43.9604 177.719 44.4157C177.347 44.8763 176.892 45.227 176.352 45.4678C175.819 45.7138 175.18 45.8368 174.437 45.8368Z" fill="#5E718F"/>
<path d="M162.385 34.2486V41.3146H159.543V25.2356H162.323V31.3045H162.464C162.747 30.624 163.184 30.0875 163.775 29.695C164.372 29.2972 165.131 29.0983 166.052 29.0983C166.889 29.0983 167.619 29.2737 168.242 29.6243C168.865 29.975 169.347 30.488 169.687 31.1631C170.032 31.8383 170.205 32.6627 170.205 33.6362V41.3146H167.363V34.0759C167.363 33.2646 167.154 32.6339 166.735 32.1838C166.321 31.7284 165.74 31.5007 164.992 31.5007C164.49 31.5007 164.039 31.6107 163.642 31.8305C163.249 32.0451 162.94 32.3565 162.715 32.7648C162.495 33.173 162.385 33.6676 162.385 34.2486Z" fill="#5E718F"/>
<path d="M156.941 32.4429L154.35 32.7255C154.277 32.4638 154.148 32.2178 153.965 31.9875C153.787 31.7572 153.546 31.5714 153.243 31.4301C152.939 31.2888 152.568 31.2181 152.128 31.2181C151.537 31.2181 151.039 31.3463 150.636 31.6028C150.238 31.8593 150.042 32.1916 150.047 32.5999C150.042 32.9506 150.17 33.2358 150.432 33.4557C150.699 33.6755 151.139 33.8561 151.751 33.9974L153.808 34.437C154.949 34.683 155.797 35.073 156.352 35.6069C156.912 36.1407 157.195 36.8395 157.2 37.7031C157.195 38.462 156.972 39.132 156.532 39.713C156.098 40.2887 155.493 40.7388 154.719 41.0633C153.944 41.3878 153.054 41.5501 152.049 41.5501C150.573 41.5501 149.385 41.2413 148.485 40.6237C147.585 40.0008 147.048 39.1346 146.876 38.025L149.647 37.758C149.773 38.3024 150.04 38.7133 150.448 38.9907C150.856 39.2681 151.387 39.4068 152.042 39.4068C152.717 39.4068 153.259 39.2681 153.667 38.9907C154.08 38.7133 154.287 38.3704 154.287 37.9622C154.287 37.6167 154.154 37.3315 153.887 37.1064C153.625 36.8813 153.217 36.7086 152.662 36.5882L150.605 36.1564C149.448 35.9157 148.592 35.51 148.038 34.9395C147.483 34.3638 147.208 33.6362 147.213 32.7569C147.208 32.0137 147.409 31.3699 147.818 30.8256C148.231 30.276 148.804 29.852 149.537 29.5537C150.275 29.2501 151.126 29.0983 152.089 29.0983C153.502 29.0983 154.614 29.3993 155.425 30.0012C156.242 30.6031 156.747 31.417 156.941 32.4429Z" fill="#5E718F"/>
<path d="M136.438 45.8368C136.05 45.8368 135.692 45.8054 135.362 45.7426C135.038 45.685 134.779 45.617 134.585 45.5384L135.244 43.3244C135.658 43.4448 136.027 43.5024 136.351 43.4972C136.676 43.4919 136.961 43.3899 137.207 43.191C137.458 42.9973 137.67 42.6728 137.843 42.2174L138.086 41.5658L133.713 29.2553H136.728L139.507 38.3626H139.633L142.42 29.2553H145.443L140.614 42.7749C140.389 43.4134 140.091 43.9604 139.719 44.4157C139.348 44.8763 138.892 45.227 138.353 45.4678C137.819 45.7138 137.181 45.8368 136.438 45.8368Z" fill="#5E718F"/>
<path d="M124.386 34.2486V41.3146H121.544V25.2356H124.323V31.3045H124.465C124.747 30.624 125.184 30.0875 125.776 29.695C126.373 29.2972 127.132 29.0983 128.053 29.0983C128.89 29.0983 129.62 29.2737 130.243 29.6243C130.866 29.975 131.348 30.488 131.688 31.1631C132.033 31.8383 132.206 32.6627 132.206 33.6362V41.3146H129.364V34.0759C129.364 33.2646 129.154 32.6339 128.736 32.1838C128.322 31.7284 127.741 31.5007 126.993 31.5007C126.49 31.5007 126.04 31.6107 125.642 31.8305C125.25 32.0451 124.941 32.3565 124.716 32.7648C124.496 33.173 124.386 33.6676 124.386 34.2486Z" fill="#5E718F"/>
<path d="M114.044 41.5501C112.841 41.5501 111.807 41.2858 110.943 40.7572C110.085 40.2285 109.423 39.4984 108.957 38.5667C108.496 37.6298 108.266 36.5516 108.266 35.3321C108.266 34.1073 108.502 33.0265 108.973 32.0896C109.444 31.1475 110.108 30.4147 110.967 29.8913C111.83 29.3626 112.851 29.0983 114.029 29.0983C115.008 29.0983 115.874 29.2789 116.627 29.64C117.386 29.996 117.991 30.5011 118.441 31.1553C118.891 31.8043 119.148 32.5633 119.21 33.4321H116.494C116.384 32.8511 116.122 32.367 115.709 31.9797C115.301 31.5871 114.754 31.3908 114.068 31.3908C113.487 31.3908 112.977 31.5479 112.537 31.8619C112.097 32.1707 111.755 32.6156 111.509 33.1966C111.268 33.7776 111.147 34.4737 111.147 35.285C111.147 36.1067 111.268 36.8133 111.509 37.4047C111.749 37.991 112.087 38.4437 112.521 38.763C112.961 39.077 113.477 39.234 114.068 39.234C114.487 39.234 114.861 39.1555 115.191 38.9985C115.526 38.8363 115.806 38.6033 116.031 38.2998C116.256 37.9962 116.41 37.6272 116.494 37.1928H119.21C119.142 38.0459 118.891 38.8022 118.457 39.4617C118.022 40.116 117.431 40.6289 116.682 41.0005C115.934 41.3669 115.055 41.5501 114.044 41.5501Z" fill="#5E718F"/>
<path d="M98.0675 34.2486V41.3146H95.2255V25.2356H98.0047V31.3045H98.1461C98.4287 30.624 98.8657 30.0875 99.4572 29.695C100.054 29.2972 100.813 29.0983 101.734 29.0983C102.571 29.0983 103.302 29.2737 103.924 29.6243C104.547 29.975 105.029 30.488 105.369 31.1631C105.714 31.8383 105.887 32.6627 105.887 33.6362V41.3146H103.045V34.0759C103.045 33.2646 102.836 32.6339 102.417 32.1838C102.004 31.7284 101.423 31.5007 100.674 31.5007C100.172 31.5007 99.7215 31.6107 99.3237 31.8305C98.9312 32.0451 98.6224 32.3565 98.3973 32.7648C98.1775 33.173 98.0675 33.6676 98.0675 34.2486Z" fill="#5E718F"/>
<path d="M92.6228 32.4429L90.032 32.7255C89.9587 32.4638 89.8304 32.2178 89.6472 31.9875C89.4693 31.7572 89.2285 31.5714 88.925 31.4301C88.6214 31.2888 88.2498 31.2181 87.8101 31.2181C87.2187 31.2181 86.7214 31.3463 86.3184 31.6028C85.9206 31.8593 85.7243 32.1916 85.7296 32.5999C85.7243 32.9506 85.8526 33.2358 86.1143 33.4557C86.3812 33.6755 86.8209 33.8561 87.4332 33.9974L89.4902 34.437C90.6312 34.683 91.4792 35.073 92.034 35.6069C92.594 36.1407 92.8767 36.8395 92.8819 37.7031C92.8767 38.462 92.6542 39.132 92.2145 39.713C91.7801 40.2887 91.1756 40.7388 90.401 41.0633C89.6263 41.3878 88.7365 41.5501 87.7316 41.5501C86.2556 41.5501 85.0675 41.2413 84.1672 40.6237C83.267 40.0008 82.7305 39.1346 82.5577 38.025L85.3292 37.758C85.4548 38.3024 85.7217 38.7133 86.13 38.9907C86.5382 39.2681 87.0695 39.4068 87.7237 39.4068C88.3989 39.4068 88.9407 39.2681 89.3489 38.9907C89.7624 38.7133 89.9691 38.3704 89.9691 37.9622C89.9691 37.6167 89.8357 37.3315 89.5687 37.1064C89.307 36.8813 88.8988 36.7086 88.344 36.5882L86.287 36.1564C85.1303 35.9157 84.2745 35.51 83.7197 34.9395C83.1649 34.3638 82.8901 33.6362 82.8953 32.7569C82.8901 32.0137 83.0916 31.3699 83.4999 30.8256C83.9134 30.276 84.4865 29.852 85.2193 29.5537C85.9573 29.2501 86.8078 29.0983 87.7708 29.0983C89.184 29.0983 90.2963 29.3993 91.1075 30.0012C91.9241 30.6031 92.4291 31.417 92.6228 32.4429Z" fill="#5E718F"/>
<path d="M72.1198 45.8368C71.7325 45.8368 71.374 45.8054 71.0442 45.7426C70.7197 45.685 70.4606 45.617 70.267 45.5384L70.9265 43.3244C71.34 43.4448 71.709 43.5024 72.0335 43.4972C72.358 43.4919 72.6432 43.3899 72.8892 43.191C73.1405 42.9973 73.3524 42.6728 73.5252 42.2174L73.7685 41.5658L69.3955 29.2553H72.4103L75.1896 38.3626H75.3152L78.1023 29.2553H81.125L76.2966 42.7749C76.0715 43.4134 75.7732 43.9604 75.4016 44.4157C75.03 44.8763 74.5746 45.227 74.0355 45.4678C73.5016 45.7138 72.8631 45.8368 72.1198 45.8368Z" fill="#5E718F"/>
<path d="M50.443 25.2356H54.0074L58.7808 36.8866H58.9692L63.7427 25.2356H67.3071V41.3146H64.5121V30.2681H64.3629L59.9192 41.2675H57.8308L53.3871 30.2446H53.238V41.3146H50.443V25.2356Z" fill="#5E718F"/>
<path d="M108.244 19.206V7.14676H111.087V19.206H108.244ZM109.673 5.43523C109.223 5.43523 108.836 5.28606 108.511 4.98772C108.187 4.68414 108.025 4.32038 108.025 3.89642C108.025 3.46723 108.187 3.10346 108.511 2.80512C108.836 2.50155 109.223 2.34976 109.673 2.34976C110.129 2.34976 110.516 2.50155 110.835 2.80512C111.16 3.10346 111.322 3.46723 111.322 3.89642C111.322 4.32038 111.16 4.68414 110.835 4.98772C110.516 5.28606 110.129 5.43523 109.673 5.43523Z" fill="#5E718F"/>
<path d="M102.48 19.206V7.14676H105.322V19.206H102.48ZM103.909 5.43523C103.459 5.43523 103.071 5.28606 102.747 4.98772C102.422 4.68414 102.26 4.32038 102.26 3.89642C102.26 3.46723 102.422 3.10346 102.747 2.80512C103.071 2.50155 103.459 2.34976 103.909 2.34976C104.364 2.34976 104.751 2.50155 105.071 2.80512C105.395 3.10346 105.557 3.46723 105.557 3.89642C105.557 4.32038 105.395 4.68414 105.071 4.98772C104.751 5.28606 104.364 5.43523 103.909 5.43523Z" fill="#5E718F"/>
<path d="M93.7141 19.206V7.14677H96.4698V9.15664H96.5954C96.8153 8.46051 97.1921 7.92402 97.726 7.54717C98.2651 7.16509 98.8801 6.97404 99.571 6.97404C99.728 6.97404 99.9034 6.9819 100.097 6.9976C100.296 7.00807 100.461 7.02639 100.592 7.05256V9.66696C100.471 9.62509 100.28 9.58845 100.019 9.55704C99.762 9.5204 99.5134 9.50209 99.2727 9.50209C98.7545 9.50209 98.2887 9.61462 97.8752 9.83968C97.4669 10.0595 97.145 10.3657 96.9095 10.7583C96.674 11.1508 96.5562 11.6036 96.5562 12.1165V19.206H93.7141Z" fill="#5E718F"/>
<path d="M84.2634 19.418C83.3161 19.418 82.4681 19.1746 81.7197 18.6878C80.9712 18.2011 80.3798 17.4945 79.9453 16.568C79.5109 15.6416 79.2937 14.5163 79.2937 13.1921C79.2937 11.8522 79.5135 10.7216 79.9532 9.80042C80.3981 8.87399 80.9974 8.17525 81.7511 7.70418C82.5048 7.22789 83.3448 6.98974 84.2713 6.98974C84.9779 6.98974 85.5588 7.11012 86.0142 7.35088C86.4696 7.58642 86.8307 7.87167 87.0977 8.20665C87.3646 8.53639 87.5713 8.84782 87.7179 9.14093H87.8357V3.12701H90.6856V19.206H87.8906V17.306H87.7179C87.5713 17.5991 87.3594 17.9106 87.082 18.2403C86.8045 18.5648 86.4382 18.8422 85.9828 19.0725C85.5274 19.3028 84.9543 19.418 84.2634 19.418ZM85.0564 17.0862C85.6583 17.0862 86.1712 16.9239 86.5952 16.5994C87.0191 16.2697 87.341 15.8117 87.5609 15.2255C87.7807 14.6393 87.8906 13.9562 87.8906 13.1764C87.8906 12.3965 87.7807 11.7187 87.5609 11.1429C87.3463 10.5672 87.027 10.1197 86.603 9.80042C86.1843 9.48114 85.6688 9.3215 85.0564 9.3215C84.4231 9.3215 83.8944 9.48637 83.4705 9.81612C83.0465 10.1459 82.7272 10.6012 82.5126 11.1822C82.298 11.7632 82.1907 12.4279 82.1907 13.1764C82.1907 13.9301 82.298 14.6026 82.5126 15.1941C82.7325 15.7803 83.0544 16.2435 83.4783 16.5837C83.9075 16.9187 84.4335 17.0862 85.0564 17.0862Z" fill="#5E718F"/>
<path d="M69.158 12.14V19.206H66.3159V7.14675H69.0324V9.19588H69.1737C69.4511 8.52069 69.8934 7.9842 70.5005 7.58641C71.1129 7.18862 71.8692 6.98973 72.7695 6.98973C73.6017 6.98973 74.3266 7.16769 74.9442 7.5236C75.5671 7.87952 76.0486 8.39507 76.3888 9.07026C76.7343 9.74545 76.9044 10.5646 76.8991 11.5276V19.206H74.0571V11.9673C74.0571 11.1613 73.8477 10.5306 73.429 10.0752C73.0155 9.61983 72.4424 9.39216 71.7096 9.39216C71.2124 9.39216 70.7701 9.50207 70.3828 9.7219C70.0007 9.9365 69.6997 10.2479 69.4799 10.6562C69.2653 11.0644 69.158 11.559 69.158 12.14Z" fill="#5E718F"/>
<path d="M52.5079 19.206H49.3989L55.0595 3.12701H58.6553L64.3238 19.206H61.2148L56.9202 6.42446H56.7946L52.5079 19.206ZM52.61 12.9016H61.0892V15.2412H52.61V12.9016Z" fill="#5E718F"/>
<path d="M41.2714 0.0536458C41.3837 0.0816349 41.2339 0.00699727 41.0841 0.00699727C33.829 0.00699727 26.5832 -0.0209918 19.3281 0.0349864C18.7289 0.0349864 18.0175 0.454823 17.5588 0.902648C14.6754 3.70156 11.8389 6.56578 8.993 9.402C6.03477 12.3502 3.07655 15.289 0.211935 18.1439C4.15312 22.0717 8.01941 25.9249 11.661 29.5448C21.4999 19.7393 31.4325 9.84983 41.2714 0.0536458Z" fill="url(#paint0_linear_6_183)"/>
<path d="M25.5909 48.0083C17.1749 39.6209 8.69343 31.1775 0.108959 22.6222C0.0621513 22.9207 0.00598248 23.126 0.00598248 23.3219C0.00598248 30.4965 -0.0221019 37.671 0.0434284 44.8455C0.0434284 45.4799 0.520864 46.2357 0.998299 46.7208C6.43732 52.2067 11.9138 57.6459 17.3902 63.0944C17.5962 63.2997 17.8022 63.4769 17.98 63.6169H41.3182V48.0176H25.6003L25.5909 48.0083Z" fill="url(#paint1_linear_6_183)"/>
<defs>
<linearGradient id="paint0_linear_6_183" x1="-5.58423e-08" y1="63.6169" x2="32.8792" y2="5.42631" gradientUnits="userSpaceOnUse">
<stop stop-color="#1D2F6F"/>
<stop offset="1" stop-color="#8390FA"/>
</linearGradient>
<linearGradient id="paint1_linear_6_183" x1="-5.58423e-08" y1="63.6169" x2="32.8792" y2="5.42631" gradientUnits="userSpaceOnUse">
<stop stop-color="#1D2F6F"/>
<stop offset="1" stop-color="#8390FA"/>
</linearGradient>
</defs>
</svg>
