<svg width="64" height="65" viewBox="0 0 64 65" fill="none" xmlns="http://www.w3.org/2000/svg">
<g filter="url(#filter0_dd_105_1173)">
<rect x="12" y="2.85815" width="39.7106" height="39.7106" rx="19.8553" fill="white"/>
<path d="M27.0444 12.622L23.7325 12.622C23.4251 12.6208 23.1207 12.681 22.839 12.7988C22.5573 12.9166 22.3044 13.0894 22.0966 13.3061C21.8887 13.5228 21.7305 13.7786 21.632 14.0572C21.5335 14.3358 21.4969 14.6309 21.5246 14.9238C21.8937 18.1729 23.0545 21.2939 24.9138 24.036C26.6087 26.5872 28.8702 28.7501 31.5375 30.3712C34.4175 32.1557 37.6965 33.2662 41.1089 33.6128C41.4142 33.6392 41.7218 33.6045 42.0123 33.5109C42.3028 33.4173 42.5698 33.2669 42.7962 33.0692C43.0225 32.8716 43.2034 32.631 43.3273 32.3628C43.4511 32.0947 43.5152 31.8048 43.5155 31.5116L43.5155 28.344C43.5208 27.8315 43.3311 27.3348 42.9817 26.9462C42.6324 26.5577 42.1472 26.3039 41.6167 26.2322C40.5568 26.0985 39.5162 25.8506 38.5146 25.4931C38.1194 25.351 37.69 25.3203 37.2772 25.4045C36.8643 25.4887 36.4854 25.6844 36.1852 25.9682L34.7832 27.3092C32.0194 25.8061 29.731 23.6174 28.1594 20.974L29.5614 19.633C29.8582 19.3459 30.0628 18.9835 30.1508 18.5886C30.2389 18.1937 30.2067 17.783 30.0582 17.4051C29.6845 16.4471 29.4252 15.4518 29.2854 14.4381C29.2098 13.9252 28.9397 13.4568 28.5265 13.1219C28.1133 12.7871 27.5858 12.6091 27.0444 12.622Z" stroke="black" stroke-linecap="round" stroke-linejoin="round"/>
</g>
<defs>
<filter id="filter0_dd_105_1173" x="0" y="0.858154" width="63.7104" height="63.7104" filterUnits="userSpaceOnUse" color-interpolation-filters="sRGB">
<feFlood flood-opacity="0" result="BackgroundImageFix"/>
<feColorMatrix in="SourceAlpha" type="matrix" values="0 0 0 0 0 0 0 0 0 0 0 0 0 0 0 0 0 0 127 0" result="hardAlpha"/>
<feMorphology radius="4" operator="erode" in="SourceAlpha" result="effect1_dropShadow_105_1173"/>
<feOffset dy="4"/>
<feGaussianBlur stdDeviation="3"/>
<feComposite in2="hardAlpha" operator="out"/>
<feColorMatrix type="matrix" values="0 0 0 0 0 0 0 0 0 0 0 0 0 0 0 0 0 0 0.1 0"/>
<feBlend mode="normal" in2="BackgroundImageFix" result="effect1_dropShadow_105_1173"/>
<feColorMatrix in="SourceAlpha" type="matrix" values="0 0 0 0 0 0 0 0 0 0 0 0 0 0 0 0 0 0 127 0" result="hardAlpha"/>
<feMorphology radius="3" operator="erode" in="SourceAlpha" result="effect2_dropShadow_105_1173"/>
<feOffset dy="10"/>
<feGaussianBlur stdDeviation="7.5"/>
<feComposite in2="hardAlpha" operator="out"/>
<feColorMatrix type="matrix" values="0 0 0 0 0 0 0 0 0 0 0 0 0 0 0 0 0 0 0.1 0"/>
<feBlend mode="normal" in2="effect1_dropShadow_105_1173" result="effect2_dropShadow_105_1173"/>
<feBlend mode="normal" in="SourceGraphic" in2="effect2_dropShadow_105_1173" result="shape"/>
</filter>
</defs>
</svg>
