<svg width="79" height="78" viewBox="0 0 79 78" fill="none" xmlns="http://www.w3.org/2000/svg">
<g filter="url(#filter0_dd_4_208)">
<rect x="5.48999" y="1" width="68" height="68" rx="34" fill="white"/>
<path d="M37.9779 17.4804C38.8779 16.9707 40.0254 16.9685 40.9029 17.4804L54.3399 25.055C55.1803 25.5275 55.7428 26.4646 55.7349 27.4332V42.6207C55.7405 43.6299 55.1229 44.5872 54.2364 45.0507L40.8714 52.5905C40.4143 52.8431 39.8978 52.9687 39.3758 52.9543C38.8537 52.9398 38.345 52.7859 37.9025 52.5084L33.8919 50.1909C33.6185 50.0277 33.3114 49.8984 33.1179 49.634C33.2889 49.4045 33.5926 49.3752 33.8401 49.274C34.3981 49.0962 34.9089 48.824 35.4219 48.536C35.5513 48.446 35.7099 48.4797 35.8336 48.5607L39.2536 50.5385C39.4978 50.6791 39.7453 50.4935 39.9545 50.3754L53.0776 42.9695C53.2396 42.8907 53.3296 42.7197 53.3161 42.542V27.5007C53.3341 27.2982 53.2183 27.1137 53.0349 27.0316L39.7036 19.5245C39.6268 19.4713 39.5357 19.4428 39.4423 19.4426C39.3488 19.4424 39.2576 19.4705 39.1805 19.5234L25.8684 27.0462C25.6884 27.1284 25.5646 27.3106 25.5871 27.5131V42.5544C25.5714 42.7321 25.6659 42.8997 25.829 42.9762L29.3863 44.9844C30.0545 45.3444 30.8746 45.5469 31.6104 45.2825C31.9324 45.1611 32.2095 44.9443 32.4048 44.661C32.6 44.3776 32.704 44.0414 32.7028 43.6974L32.7061 28.7461C32.6904 28.5245 32.8996 28.3411 33.1145 28.3636H34.8245C35.0495 28.358 35.2261 28.5965 35.1958 28.8192L35.1924 43.865C35.1935 45.2015 34.6445 46.655 33.4081 47.3109C31.8849 48.0984 30.0016 47.933 28.4964 47.1759L24.6714 45.0609C23.7714 44.6109 23.1673 43.6389 23.1729 42.6309V27.4434C23.1766 26.9497 23.3123 26.4661 23.5659 26.0426C23.8195 25.6191 24.1818 25.2711 24.6151 25.0347L37.9779 17.4804ZM41.8524 28.0081C43.7953 27.8956 45.8754 27.9339 47.6236 28.8912C48.977 29.6247 49.7274 31.1637 49.7521 32.669C49.7139 32.8715 49.5024 32.984 49.3089 32.9694C48.7464 32.9682 48.1816 32.9772 47.6169 32.966C47.3773 32.975 47.2389 32.7545 47.2085 32.543C47.0465 31.823 46.6539 31.1109 45.9766 30.7632C44.9371 30.2424 43.7311 30.2682 42.5971 30.2795C41.7691 30.3245 40.8793 30.3954 40.1784 30.8814C39.6384 31.2504 39.4764 32.0064 39.6688 32.5936C39.8488 33.0245 40.3471 33.1629 40.7533 33.2911C43.0955 33.9031 45.5761 33.8536 47.8745 34.649C48.8251 34.9775 49.7555 35.6165 50.0818 36.6121C50.507 37.9464 50.3214 39.5416 49.373 40.6126C48.6035 41.4946 47.483 41.9626 46.3636 42.2349C44.8753 42.5667 43.3318 42.5746 41.8209 42.4261C40.4 42.2641 38.9218 41.8906 37.8249 40.9231C36.8866 40.1086 36.4299 38.8396 36.4749 37.6156C36.4861 37.4086 36.692 37.2646 36.8911 37.2815H38.5786C38.8059 37.2657 38.9724 37.4615 38.9836 37.6752C39.0883 38.3502 39.3459 39.0815 39.9444 39.4752C41.0986 40.22 42.5465 40.1682 43.8673 40.1896C44.9619 40.1412 46.1904 40.1266 47.0848 39.4021C47.5573 38.9892 47.6956 38.2996 47.5685 37.7056C47.4301 37.2039 46.8935 36.971 46.4435 36.8056C44.1316 36.0744 41.6229 36.3399 39.3335 35.5119C38.4043 35.1834 37.5054 34.5624 37.1488 33.6072C36.6504 32.2572 36.8788 30.5844 37.9284 29.5494C38.9409 28.52 40.4259 28.1229 41.8321 27.9811L41.8524 28.0081Z" fill="#8CC84B"/>
</g>
<defs>
<filter id="filter0_dd_4_208" x="0.48999" y="0" width="78" height="78" filterUnits="userSpaceOnUse" color-interpolation-filters="sRGB">
<feFlood flood-opacity="0" result="BackgroundImageFix"/>
<feColorMatrix in="SourceAlpha" type="matrix" values="0 0 0 0 0 0 0 0 0 0 0 0 0 0 0 0 0 0 127 0" result="hardAlpha"/>
<feMorphology radius="2" operator="erode" in="SourceAlpha" result="effect1_dropShadow_4_208"/>
<feOffset dy="2"/>
<feGaussianBlur stdDeviation="2"/>
<feComposite in2="hardAlpha" operator="out"/>
<feColorMatrix type="matrix" values="0 0 0 0 0 0 0 0 0 0 0 0 0 0 0 0 0 0 0.1 0"/>
<feBlend mode="normal" in2="BackgroundImageFix" result="effect1_dropShadow_4_208"/>
<feColorMatrix in="SourceAlpha" type="matrix" values="0 0 0 0 0 0 0 0 0 0 0 0 0 0 0 0 0 0 127 0" result="hardAlpha"/>
<feMorphology radius="1" operator="erode" in="SourceAlpha" result="effect2_dropShadow_4_208"/>
<feOffset dy="4"/>
<feGaussianBlur stdDeviation="3"/>
<feComposite in2="hardAlpha" operator="out"/>
<feColorMatrix type="matrix" values="0 0 0 0 0 0 0 0 0 0 0 0 0 0 0 0 0 0 0.1 0"/>
<feBlend mode="normal" in2="effect1_dropShadow_4_208" result="effect2_dropShadow_4_208"/>
<feBlend mode="normal" in="SourceGraphic" in2="effect2_dropShadow_4_208" result="shape"/>
</filter>
</defs>
</svg>
