<svg width="79" height="78" viewBox="0 0 79 78" fill="none" xmlns="http://www.w3.org/2000/svg">
<g filter="url(#filter0_dd_4_211)">
<rect x="5.48999" y="1" width="68" height="68" rx="34" fill="white"/>
<path d="M57.49 44.8943C56.1805 45.2273 55.3705 44.909 54.6437 43.8177L49.4755 36.6672L48.7285 35.6772L42.6929 43.8413C42.0032 44.8235 41.2799 45.251 39.9929 44.9033L47.7216 34.5286L40.5261 25.1573C41.7636 24.9166 42.6186 25.0392 43.378 26.1473L48.7386 33.3867L54.1386 26.1867C54.8305 25.2046 55.5741 24.8311 56.8161 25.1933L54.0261 28.8923L50.2461 33.8142C49.7961 34.3767 49.858 34.7615 50.272 35.3048L57.49 44.8943ZM21.499 34.3553L22.1312 31.2458C23.8525 25.0921 30.9062 22.535 35.7707 26.3375C38.6136 28.574 39.3201 31.7375 39.1795 35.2812H23.155C22.9142 41.66 27.5054 45.5097 33.3587 43.5455C35.4119 42.8558 36.6212 41.2482 37.2265 39.2367C37.5336 38.2287 38.0421 38.0712 38.9894 38.3592C38.5056 40.8747 37.4144 42.9762 35.1081 44.2913C31.6622 46.2601 26.7437 45.6233 24.1562 42.8873C22.615 41.3 21.9782 39.2885 21.6925 37.1375C21.6475 36.782 21.5575 36.4433 21.49 36.1025C21.496 35.5205 21.499 34.9385 21.499 34.3565V34.3553ZM23.1842 33.9278H37.6652C37.5707 29.3153 34.6986 26.0393 30.7735 26.0112C26.4647 25.9775 23.371 29.1758 23.1842 33.9278Z" fill="black"/>
</g>
<defs>
<filter id="filter0_dd_4_211" x="0.48999" y="0" width="78" height="78" filterUnits="userSpaceOnUse" color-interpolation-filters="sRGB">
<feFlood flood-opacity="0" result="BackgroundImageFix"/>
<feColorMatrix in="SourceAlpha" type="matrix" values="0 0 0 0 0 0 0 0 0 0 0 0 0 0 0 0 0 0 127 0" result="hardAlpha"/>
<feMorphology radius="2" operator="erode" in="SourceAlpha" result="effect1_dropShadow_4_211"/>
<feOffset dy="2"/>
<feGaussianBlur stdDeviation="2"/>
<feComposite in2="hardAlpha" operator="out"/>
<feColorMatrix type="matrix" values="0 0 0 0 0 0 0 0 0 0 0 0 0 0 0 0 0 0 0.1 0"/>
<feBlend mode="normal" in2="BackgroundImageFix" result="effect1_dropShadow_4_211"/>
<feColorMatrix in="SourceAlpha" type="matrix" values="0 0 0 0 0 0 0 0 0 0 0 0 0 0 0 0 0 0 127 0" result="hardAlpha"/>
<feMorphology radius="1" operator="erode" in="SourceAlpha" result="effect2_dropShadow_4_211"/>
<feOffset dy="4"/>
<feGaussianBlur stdDeviation="3"/>
<feComposite in2="hardAlpha" operator="out"/>
<feColorMatrix type="matrix" values="0 0 0 0 0 0 0 0 0 0 0 0 0 0 0 0 0 0 0.1 0"/>
<feBlend mode="normal" in2="effect1_dropShadow_4_211" result="effect2_dropShadow_4_211"/>
<feBlend mode="normal" in="SourceGraphic" in2="effect2_dropShadow_4_211" result="shape"/>
</filter>
</defs>
</svg>
