<svg width="79" height="78" viewBox="0 0 79 78" fill="none" xmlns="http://www.w3.org/2000/svg">
<g filter="url(#filter0_dd_4_214)">
<rect x="5.48999" y="1" width="68" height="68" rx="34" fill="white"/>
<path d="M39.3775 17.0979L40.3383 18.9024C40.5543 19.2354 40.7883 19.5302 41.0639 19.8047C41.8683 20.609 42.6321 21.4517 43.3184 22.3539C44.9463 24.4914 46.0443 26.8652 46.8284 29.4324C47.2986 31.0007 47.554 32.6094 47.5731 34.2362C47.6519 39.0995 45.9846 43.2755 42.6231 46.7462C42.0741 47.2952 41.4869 47.8037 40.8569 48.2559C40.5239 48.2559 40.3664 48.0005 40.2291 47.7654C39.9738 47.3345 39.8174 46.8429 39.7386 46.3535C39.6205 45.7652 39.5429 45.1768 39.5811 44.5693V44.2948C39.5541 44.2363 39.2605 17.2363 39.3775 17.0979Z" fill="#599636"/>
<path d="M39.3775 17.0382C39.3381 16.9595 39.2988 17.0191 39.2594 17.0573C39.2785 17.4511 39.1413 17.8021 38.9264 18.1373C38.6901 18.4703 38.3774 18.7257 38.0635 19.0002C36.3198 20.51 34.9473 22.3336 33.8481 24.3732C32.3856 27.1182 31.6319 30.0601 31.4181 33.1572C31.3203 34.2743 31.7714 38.2163 32.1235 39.3537C33.0843 42.3732 34.81 44.9033 37.0454 47.0993C37.5944 47.6281 38.1816 48.1186 38.7891 48.59C38.9658 48.59 38.9849 48.4325 39.0254 48.3155C39.1028 48.0651 39.1618 47.8094 39.202 47.5505L39.5958 44.6097L39.3775 17.0382Z" fill="#6CAC48"/>
<path d="M40.3382 49.4506C40.3776 49.0006 40.5936 48.6271 40.8287 48.2547C40.5924 48.1568 40.4169 47.9622 40.2797 47.7451C40.1616 47.5493 40.0637 47.3142 39.9872 47.0982C39.7127 46.2747 39.6542 45.4107 39.5754 44.5692V44.0596C39.4776 44.1383 39.4573 44.8043 39.4573 44.9033C39.4001 45.7927 39.282 46.6772 39.1041 47.5504C39.0456 47.9037 39.0062 48.2558 38.7891 48.5697C38.7891 48.6091 38.7891 48.6484 38.8082 48.7069C39.1614 49.7464 39.2582 50.8051 39.3178 51.8839V52.2777C39.3178 52.7479 39.2987 52.6489 39.6891 52.8064C39.8466 52.8649 40.0221 52.8852 40.1796 53.0022C40.2977 53.0022 40.3168 52.9043 40.3168 52.8256L40.2583 52.1787V50.3742C40.2392 50.0592 40.2977 49.7464 40.3371 49.4517L40.3382 49.4506Z" fill="#C2BFBF"/>
</g>
<defs>
<filter id="filter0_dd_4_214" x="0.48999" y="0" width="78" height="78" filterUnits="userSpaceOnUse" color-interpolation-filters="sRGB">
<feFlood flood-opacity="0" result="BackgroundImageFix"/>
<feColorMatrix in="SourceAlpha" type="matrix" values="0 0 0 0 0 0 0 0 0 0 0 0 0 0 0 0 0 0 127 0" result="hardAlpha"/>
<feMorphology radius="2" operator="erode" in="SourceAlpha" result="effect1_dropShadow_4_214"/>
<feOffset dy="2"/>
<feGaussianBlur stdDeviation="2"/>
<feComposite in2="hardAlpha" operator="out"/>
<feColorMatrix type="matrix" values="0 0 0 0 0 0 0 0 0 0 0 0 0 0 0 0 0 0 0.1 0"/>
<feBlend mode="normal" in2="BackgroundImageFix" result="effect1_dropShadow_4_214"/>
<feColorMatrix in="SourceAlpha" type="matrix" values="0 0 0 0 0 0 0 0 0 0 0 0 0 0 0 0 0 0 127 0" result="hardAlpha"/>
<feMorphology radius="1" operator="erode" in="SourceAlpha" result="effect2_dropShadow_4_214"/>
<feOffset dy="4"/>
<feGaussianBlur stdDeviation="3"/>
<feComposite in2="hardAlpha" operator="out"/>
<feColorMatrix type="matrix" values="0 0 0 0 0 0 0 0 0 0 0 0 0 0 0 0 0 0 0.1 0"/>
<feBlend mode="normal" in2="effect1_dropShadow_4_214" result="effect2_dropShadow_4_214"/>
<feBlend mode="normal" in="SourceGraphic" in2="effect2_dropShadow_4_214" result="shape"/>
</filter>
</defs>
</svg>
