<svg width="79" height="78" viewBox="0 0 79 78" fill="none" xmlns="http://www.w3.org/2000/svg">
<g filter="url(#filter0_dd_4_219)">
<rect x="5.48999" y="1" width="68" height="68" rx="34" fill="white"/>
<path d="M53.7338 34.7079C53.7338 32.859 52.2351 31.3602 50.3862 31.3602C50.2673 31.3602 50.15 31.3666 50.0344 31.3787L54.6323 17.8176H35.0926L39.684 31.367C39.6167 31.3629 39.5491 31.3602 39.4806 31.3602C37.6318 31.3602 36.133 32.859 36.133 34.7079C36.133 36.2023 37.1124 37.4675 38.4642 37.898C37.7502 39.1347 36.8519 40.2486 35.8319 41.2108C34.445 42.5192 32.8576 43.5113 31.141 44.1227C29.097 43.0727 28.1317 40.7374 29.0027 38.69C29.1011 38.4589 29.2014 38.2244 29.2975 37.9911C30.7782 37.6455 31.8816 36.3179 31.8816 34.7319C31.8816 32.8831 30.3828 31.3843 28.534 31.3843C26.685 31.3843 25.1862 32.8831 25.1862 34.7319C25.1862 35.8657 25.7504 36.867 26.6126 37.4726C25.784 39.3592 24.5661 41.3335 24.1866 43.6217C23.7318 46.3642 24.1852 49.2753 26.557 50.9192C32.0809 54.7477 38.077 48.5459 44.3991 46.9868C46.6903 46.4217 49.2053 46.5128 51.224 45.3436C52.74 44.4656 53.7393 43.0106 54.023 41.377C54.3031 39.7633 53.8946 38.1565 52.9553 36.8536C53.4411 36.2725 53.7338 35.5245 53.7338 34.7079ZM42.828 34.7197C42.828 34.7157 42.8284 34.7118 42.8284 34.7079C42.8284 33.4938 42.1819 32.4306 41.2146 31.8438L44.8691 24.4541L48.5299 31.9221C47.6309 32.5223 47.0385 33.5458 47.0385 34.7079C47.0385 34.7323 47.0399 34.7563 47.0404 34.7806L42.828 34.7197Z" fill="#C63D14"/>
<path d="M54.5513 34.7078C54.5513 32.6744 53.0863 30.9777 51.1564 30.6153L55.7727 17H33.9521L38.5753 30.6429C36.7126 31.0574 35.3154 32.7221 35.3154 34.7078C35.3154 36.1991 36.1034 37.5089 37.2846 38.245C36.7164 39.0913 36.0427 39.8877 35.2707 40.616C34.0465 41.7711 32.6824 42.647 31.2119 43.2233C29.7308 42.2929 29.1047 40.5384 29.755 39.0099L29.8058 38.8903C29.8376 38.8155 29.8696 38.7404 29.9014 38.6654C31.5281 38.0982 32.6991 36.5497 32.6991 34.7318C32.6991 32.4351 30.8305 30.5667 28.5338 30.5667C26.237 30.5667 24.3686 32.4351 24.3686 34.7318C24.3686 35.8911 24.845 36.9408 25.6118 37.6967C25.4727 37.9931 25.3266 38.2943 25.1763 38.6029C24.4752 40.0431 23.6805 41.6754 23.3799 43.488C22.7829 47.0879 23.7458 49.9656 26.0911 51.591C27.5143 52.5774 28.9595 52.9654 30.4139 52.9653C33.1526 52.9651 35.9228 51.5894 38.6323 50.2435C40.5838 49.2743 42.6016 48.272 44.5948 47.7805C45.3365 47.5976 46.0996 47.4875 46.9075 47.371C48.5096 47.1399 50.1663 46.901 51.6338 46.0511C53.3347 45.0659 54.4992 43.4132 54.8284 41.5169C55.111 39.889 54.7708 38.2587 53.9411 36.8759C54.3279 36.244 54.5513 35.5016 54.5513 34.7078ZM52.9162 34.7078C52.9162 36.1029 51.7812 37.238 50.386 37.238C48.991 37.238 47.856 36.1029 47.856 34.7078C47.856 33.3127 48.991 32.1778 50.386 32.1778C51.7812 32.1778 52.9162 33.3127 52.9162 34.7078ZM53.4917 18.6351L49.4153 30.658C49.2386 30.7004 49.0663 30.7538 48.8991 30.818L44.8722 22.6032L40.8335 30.7694C40.659 30.7093 40.4794 30.6598 40.2952 30.6231L36.2328 18.6351H53.4917ZM39.4806 32.1778C40.8756 32.1778 42.0106 33.3127 42.0106 34.7078C42.0106 36.1029 40.8756 37.238 39.4806 37.238C38.0856 37.238 36.9505 36.1029 36.9505 34.7078C36.9505 33.3127 38.0856 32.1778 39.4806 32.1778ZM28.5338 32.2018C29.929 32.2018 31.0639 33.3368 31.0639 34.7318C31.0639 36.1269 29.929 37.262 28.5338 37.262C27.1388 37.262 26.0037 36.1269 26.0037 34.7318C26.0037 33.3368 27.1388 32.2018 28.5338 32.2018ZM53.2173 41.2372C52.9711 42.6553 52.0952 43.8942 50.8142 44.636C49.6201 45.3277 48.1891 45.5341 46.6741 45.7526C45.8625 45.8696 45.0232 45.9907 44.2033 46.1929C42.0354 46.7275 39.9356 47.7705 37.9049 48.7791C33.8413 50.7975 30.3317 52.5405 27.0226 50.2471C24.5987 48.5672 24.7106 45.4588 24.993 43.7555C25.2547 42.1775 25.9622 40.7241 26.6465 39.3186C26.7649 39.0754 26.8799 38.8371 26.9928 38.6004C27.3321 38.7361 27.693 38.8286 28.0692 38.8706C27.3727 41.1694 28.4681 43.6688 30.7672 44.8499L31.0817 45.0116L31.415 44.8929C33.2326 44.2456 34.9073 43.2069 36.3928 41.8054C37.3531 40.8995 38.1783 39.8973 38.8568 38.8263C39.0604 38.857 39.2686 38.8731 39.4806 38.8731C41.7773 38.8731 43.6459 37.0047 43.6459 34.7078C43.6459 33.4726 43.1048 32.3618 42.248 31.5983L44.8657 26.3049L47.51 31.6992C46.7166 32.4581 46.2208 33.5258 46.2208 34.7078C46.2208 37.0047 48.0893 38.8731 50.386 38.8731C51.2685 38.8731 52.087 38.5966 52.7612 38.1267C53.2294 39.0849 53.4038 40.1631 53.2173 41.2372Z" fill="white"/>
</g>
<defs>
<filter id="filter0_dd_4_219" x="0.48999" y="0" width="78" height="78" filterUnits="userSpaceOnUse" color-interpolation-filters="sRGB">
<feFlood flood-opacity="0" result="BackgroundImageFix"/>
<feColorMatrix in="SourceAlpha" type="matrix" values="0 0 0 0 0 0 0 0 0 0 0 0 0 0 0 0 0 0 127 0" result="hardAlpha"/>
<feMorphology radius="2" operator="erode" in="SourceAlpha" result="effect1_dropShadow_4_219"/>
<feOffset dy="2"/>
<feGaussianBlur stdDeviation="2"/>
<feComposite in2="hardAlpha" operator="out"/>
<feColorMatrix type="matrix" values="0 0 0 0 0 0 0 0 0 0 0 0 0 0 0 0 0 0 0.1 0"/>
<feBlend mode="normal" in2="BackgroundImageFix" result="effect1_dropShadow_4_219"/>
<feColorMatrix in="SourceAlpha" type="matrix" values="0 0 0 0 0 0 0 0 0 0 0 0 0 0 0 0 0 0 127 0" result="hardAlpha"/>
<feMorphology radius="1" operator="erode" in="SourceAlpha" result="effect2_dropShadow_4_219"/>
<feOffset dy="4"/>
<feGaussianBlur stdDeviation="3"/>
<feComposite in2="hardAlpha" operator="out"/>
<feColorMatrix type="matrix" values="0 0 0 0 0 0 0 0 0 0 0 0 0 0 0 0 0 0 0.1 0"/>
<feBlend mode="normal" in2="effect1_dropShadow_4_219" result="effect2_dropShadow_4_219"/>
<feBlend mode="normal" in="SourceGraphic" in2="effect2_dropShadow_4_219" result="shape"/>
</filter>
</defs>
</svg>
