<svg width="71" height="70" viewBox="0 0 71 70" fill="none" xmlns="http://www.w3.org/2000/svg">
<g filter="url(#filter0_dd_159_54)">
<rect x="5" y="1" width="61" height="60" rx="30" fill="white"/>
<path fill-rule="evenodd" clip-rule="evenodd" d="M32.8587 17.6259C31.5978 15.458 28.4457 15.458 27.1849 17.6259L13.4438 41.2527C12.1829 43.4206 13.759 46.1305 16.2806 46.1305H27.0077C25.9302 45.1888 25.5312 43.5597 26.3466 42.162L36.7535 24.3228L32.8587 17.6259Z" fill="#80EEC0"/>
<path d="M41.5654 22.8086C42.6089 21.0348 45.2175 21.0348 46.2609 22.8086L57.6327 42.1396C58.6763 43.9133 57.3721 46.1305 55.2853 46.1305H32.5412C30.4543 46.1305 29.15 43.9133 30.1934 42.1396L41.5654 22.8086Z" fill="#00DC82"/>
</g>
<defs>
<filter id="filter0_dd_159_54" x="0" y="0" width="71" height="70" filterUnits="userSpaceOnUse" color-interpolation-filters="sRGB">
<feFlood flood-opacity="0" result="BackgroundImageFix"/>
<feColorMatrix in="SourceAlpha" type="matrix" values="0 0 0 0 0 0 0 0 0 0 0 0 0 0 0 0 0 0 127 0" result="hardAlpha"/>
<feMorphology radius="2" operator="erode" in="SourceAlpha" result="effect1_dropShadow_159_54"/>
<feOffset dy="2"/>
<feGaussianBlur stdDeviation="2"/>
<feComposite in2="hardAlpha" operator="out"/>
<feColorMatrix type="matrix" values="0 0 0 0 0 0 0 0 0 0 0 0 0 0 0 0 0 0 0.1 0"/>
<feBlend mode="normal" in2="BackgroundImageFix" result="effect1_dropShadow_159_54"/>
<feColorMatrix in="SourceAlpha" type="matrix" values="0 0 0 0 0 0 0 0 0 0 0 0 0 0 0 0 0 0 127 0" result="hardAlpha"/>
<feMorphology radius="1" operator="erode" in="SourceAlpha" result="effect2_dropShadow_159_54"/>
<feOffset dy="4"/>
<feGaussianBlur stdDeviation="3"/>
<feComposite in2="hardAlpha" operator="out"/>
<feColorMatrix type="matrix" values="0 0 0 0 0 0 0 0 0 0 0 0 0 0 0 0 0 0 0.1 0"/>
<feBlend mode="normal" in2="effect1_dropShadow_159_54" result="effect2_dropShadow_159_54"/>
<feBlend mode="normal" in="SourceGraphic" in2="effect2_dropShadow_159_54" result="shape"/>
</filter>
</defs>
</svg>
