<svg width="79" height="78" viewBox="0 0 79 78" fill="none" xmlns="http://www.w3.org/2000/svg">
<g filter="url(#filter0_dd_4_171)">
<rect x="5.48999" y="1" width="68" height="68" rx="34" fill="white"/>
<path d="M39.49 19.25C42.605 19.25 45.6501 20.1737 48.2402 21.9044C50.8303 23.635 52.849 26.0948 54.0411 28.9727C55.2332 31.8507 55.5451 35.0175 54.9374 38.0727C54.3296 41.1279 52.8296 43.9343 50.6269 46.1369C48.4242 48.3396 45.6179 49.8397 42.5627 50.4474C39.5075 51.0551 36.3407 50.7432 33.4627 49.5511C30.5848 48.359 28.125 46.3403 26.3943 43.7502C24.6637 41.1602 23.74 38.1151 23.74 35C23.74 30.8228 25.3994 26.8168 28.3531 23.8631C31.3068 20.9094 35.3128 19.25 39.49 19.25Z" fill="#CC6699"/>
<path d="M49.3698 25.991C48.6566 23.1943 44.0182 22.2785 39.6285 23.8333C36.8793 24.7571 34.3393 26.214 32.154 28.1207C29.7363 30.3819 29.3505 32.3507 29.5091 33.173C30.0716 36.0755 34.0462 37.9723 35.6808 39.3797V39.3875C35.1993 39.6249 31.6713 41.4125 30.8433 43.235C29.9726 45.161 30.9817 46.5425 31.6511 46.7281C32.6561 46.9701 33.7116 46.8914 34.6695 46.503C35.6275 46.1146 36.4398 45.436 36.9926 44.5625C37.4494 43.8548 37.7352 43.0505 37.8274 42.2132C37.9195 41.3759 37.8155 40.5287 37.5236 39.7385C38.3109 39.5385 39.1294 39.4915 39.9345 39.6002C42.6975 39.923 43.2397 41.6477 43.1362 42.3699C43.0875 42.627 42.9841 42.8706 42.8328 43.0841C42.6816 43.2977 42.4862 43.4761 42.2598 43.6074C42.0663 43.7278 42.0067 43.7683 42.0236 43.8583C42.0472 43.9877 42.1361 43.9831 42.3015 43.955C42.7167 43.8243 43.0825 43.5708 43.3508 43.228C43.6191 42.8852 43.7773 42.4691 43.8045 42.0347C43.8708 40.3472 42.2497 38.4504 39.3787 38.4988C38.5449 38.475 37.7128 38.589 36.9161 38.8363C36.8767 38.7913 36.8362 38.7463 36.7946 38.7013C35.0193 36.8079 31.7388 35.468 31.8772 32.9222C31.9278 31.9963 32.2496 29.5595 38.1772 26.603C43.0372 24.1809 46.9275 24.848 47.6002 26.3251C48.561 28.4356 45.5212 32.3563 40.4745 32.9222C39.9167 33.0354 39.3405 33.0216 38.7888 32.8817C38.237 32.7419 37.7239 32.4796 37.2873 32.1144C37.0218 31.8219 36.9825 31.8095 36.8835 31.8635C36.7226 31.9524 36.825 32.2112 36.8835 32.3642C37.0767 32.7124 37.3376 33.0186 37.6507 33.2647C37.9639 33.5108 38.323 33.6919 38.7071 33.7974C40.6913 34.2286 42.761 34.0239 44.6223 33.2124C47.6835 32.0323 50.0707 28.7417 49.3698 25.991ZM36.3603 40.2459C36.5838 41.0162 36.5724 41.8356 36.3277 42.5994C36.3015 42.6789 36.2726 42.7577 36.2411 42.8357C36.2096 42.9137 36.1755 42.9887 36.1387 43.0607C35.9494 43.448 35.7041 43.8055 35.4108 44.1215C34.4962 45.1194 33.2171 45.4974 32.6692 45.179C32.0775 44.8359 32.3733 43.4285 33.4342 42.3069C34.2494 41.5008 35.1892 40.8315 36.2175 40.3246L36.3603 40.2459Z" fill="white"/>
</g>
<defs>
<filter id="filter0_dd_4_171" x="0.48999" y="0" width="78" height="78" filterUnits="userSpaceOnUse" color-interpolation-filters="sRGB">
<feFlood flood-opacity="0" result="BackgroundImageFix"/>
<feColorMatrix in="SourceAlpha" type="matrix" values="0 0 0 0 0 0 0 0 0 0 0 0 0 0 0 0 0 0 127 0" result="hardAlpha"/>
<feMorphology radius="2" operator="erode" in="SourceAlpha" result="effect1_dropShadow_4_171"/>
<feOffset dy="2"/>
<feGaussianBlur stdDeviation="2"/>
<feComposite in2="hardAlpha" operator="out"/>
<feColorMatrix type="matrix" values="0 0 0 0 0 0 0 0 0 0 0 0 0 0 0 0 0 0 0.1 0"/>
<feBlend mode="normal" in2="BackgroundImageFix" result="effect1_dropShadow_4_171"/>
<feColorMatrix in="SourceAlpha" type="matrix" values="0 0 0 0 0 0 0 0 0 0 0 0 0 0 0 0 0 0 127 0" result="hardAlpha"/>
<feMorphology radius="1" operator="erode" in="SourceAlpha" result="effect2_dropShadow_4_171"/>
<feOffset dy="4"/>
<feGaussianBlur stdDeviation="3"/>
<feComposite in2="hardAlpha" operator="out"/>
<feColorMatrix type="matrix" values="0 0 0 0 0 0 0 0 0 0 0 0 0 0 0 0 0 0 0.1 0"/>
<feBlend mode="normal" in2="effect1_dropShadow_4_171" result="effect2_dropShadow_4_171"/>
<feBlend mode="normal" in="SourceGraphic" in2="effect2_dropShadow_4_171" result="shape"/>
</filter>
</defs>
</svg>
