<svg width="79" height="78" viewBox="0 0 79 78" fill="none" xmlns="http://www.w3.org/2000/svg">
<g filter="url(#filter0_dd_4_175)">
<rect x="5.48999" y="1" width="68" height="68" rx="34" fill="white"/>
<mask id="mask0_4_175" style="mask-type:luminance" maskUnits="userSpaceOnUse" x="21" y="17" width="37" height="36">
<path d="M21.49 17.0442H57.4458V53H21.49V17.0442Z" fill="white"/>
</mask>
<g mask="url(#mask0_4_175)">
<path d="M56.7684 33.4211L41.0693 17.7231C40.8543 17.5079 40.5989 17.3372 40.3178 17.2207C40.0368 17.1043 39.7355 17.0443 39.4313 17.0443C39.1271 17.0443 38.8258 17.1043 38.5448 17.2207C38.2637 17.3372 38.0084 17.5079 37.7933 17.7231L34.5345 20.9834L38.6691 25.118C39.1551 24.9529 39.6777 24.9271 40.1777 25.0436C40.6777 25.16 41.1351 25.4141 41.4982 25.7769C41.8633 26.1424 42.1182 26.6033 42.2337 27.1069C42.3492 27.6105 42.3206 28.1364 42.1513 28.6244L46.1375 32.6095C46.6257 32.4399 47.1518 32.4114 47.6555 32.5271C48.1592 32.6428 48.6201 32.8981 48.9854 33.2638C49.2413 33.5196 49.4442 33.8233 49.5827 34.1575C49.7212 34.4918 49.7924 34.8501 49.7924 35.2119C49.7924 35.5737 49.7212 35.9319 49.5827 36.2662C49.4442 36.6005 49.2413 36.9042 48.9854 37.16C48.4681 37.6767 47.7669 37.967 47.0357 37.967C46.3046 37.967 45.6033 37.6767 45.0861 37.16C44.7018 36.7751 44.44 36.2851 44.3336 35.7517C44.2272 35.2184 44.281 34.6655 44.4881 34.1626L40.7707 30.4464V40.2278C41.1631 40.4216 41.5037 40.7061 41.7642 41.0578C42.0247 41.4094 42.1977 41.8181 42.2688 42.2499C42.34 42.6817 42.3072 43.1242 42.1733 43.5408C42.0393 43.9575 41.808 44.3362 41.4986 44.6456C41.2428 44.9015 40.9391 45.1044 40.6048 45.2429C40.2705 45.3814 39.9123 45.4527 39.5505 45.4527C39.1887 45.4527 38.8304 45.3814 38.4961 45.2429C38.1619 45.1044 37.8582 44.9015 37.6024 44.6456C37.3464 44.3898 37.1434 44.0861 37.0049 43.7518C36.8664 43.4175 36.7951 43.0592 36.7951 42.6973C36.7951 42.3355 36.8664 41.9772 37.0049 41.6429C37.1434 41.3086 37.3464 41.0048 37.6024 40.749C37.8601 40.4907 38.1666 40.286 38.5039 40.1468V30.2754C38.168 30.137 37.8626 29.9336 37.6055 29.6768C37.3484 29.4201 37.1445 29.1151 37.0056 28.7794C36.8667 28.4436 36.7955 28.0837 36.7961 27.7204C36.7967 27.357 36.8691 26.9973 37.0091 26.6621L32.9325 22.5847L22.167 33.3475C21.7331 33.7822 21.4895 34.3712 21.4895 34.9853C21.4895 35.5994 21.7331 36.1884 22.167 36.6231L37.8669 52.323C38.3015 52.7567 38.8905 53.0003 39.5045 53.0003C40.1185 53.0003 40.7074 52.7567 41.1421 52.323L56.7684 36.6967C57.2023 36.262 57.4459 35.673 57.4459 35.0589C57.4459 34.4448 57.2023 33.8557 56.7684 33.4211Z" fill="#F03C2E"/>
</g>
</g>
<defs>
<filter id="filter0_dd_4_175" x="0.48999" y="0" width="78" height="78" filterUnits="userSpaceOnUse" color-interpolation-filters="sRGB">
<feFlood flood-opacity="0" result="BackgroundImageFix"/>
<feColorMatrix in="SourceAlpha" type="matrix" values="0 0 0 0 0 0 0 0 0 0 0 0 0 0 0 0 0 0 127 0" result="hardAlpha"/>
<feMorphology radius="2" operator="erode" in="SourceAlpha" result="effect1_dropShadow_4_175"/>
<feOffset dy="2"/>
<feGaussianBlur stdDeviation="2"/>
<feComposite in2="hardAlpha" operator="out"/>
<feColorMatrix type="matrix" values="0 0 0 0 0 0 0 0 0 0 0 0 0 0 0 0 0 0 0.1 0"/>
<feBlend mode="normal" in2="BackgroundImageFix" result="effect1_dropShadow_4_175"/>
<feColorMatrix in="SourceAlpha" type="matrix" values="0 0 0 0 0 0 0 0 0 0 0 0 0 0 0 0 0 0 127 0" result="hardAlpha"/>
<feMorphology radius="1" operator="erode" in="SourceAlpha" result="effect2_dropShadow_4_175"/>
<feOffset dy="4"/>
<feGaussianBlur stdDeviation="3"/>
<feComposite in2="hardAlpha" operator="out"/>
<feColorMatrix type="matrix" values="0 0 0 0 0 0 0 0 0 0 0 0 0 0 0 0 0 0 0.1 0"/>
<feBlend mode="normal" in2="effect1_dropShadow_4_175" result="effect2_dropShadow_4_175"/>
<feBlend mode="normal" in="SourceGraphic" in2="effect2_dropShadow_4_175" result="shape"/>
</filter>
</defs>
</svg>
