<svg width="79" height="78" viewBox="0 0 79 78" fill="none" xmlns="http://www.w3.org/2000/svg">
<g filter="url(#filter0_dd_4_190)">
<rect x="5.48999" y="1" width="68" height="68" rx="34" fill="white"/>
<path d="M53.9744 17H25.0056C23.064 17 21.49 18.574 21.49 20.5156V49.4844C21.49 51.426 23.064 53 25.0056 53H53.9744C55.916 53 57.49 51.426 57.49 49.4844V20.5156C57.49 18.574 55.916 17 53.9744 17Z" fill="#3178C6"/>
<path d="M53.9744 17H25.0056C23.064 17 21.49 18.574 21.49 20.5156V49.4844C21.49 51.426 23.064 53 25.0056 53H53.9744C55.916 53 57.49 51.426 57.49 49.4844V20.5156C57.49 18.574 55.916 17 53.9744 17Z" fill="#3178C6"/>
<path fill-rule="evenodd" clip-rule="evenodd" d="M43.7748 45.647V49.1669C44.347 49.4603 45.0237 49.6802 45.805 49.8269C46.5863 49.9735 47.4098 50.0469 48.2755 50.0469C49.1191 50.0469 49.9206 49.9662 50.6799 49.8049C51.4392 49.6436 52.105 49.3777 52.6772 49.0074C53.2494 48.6371 53.7024 48.1531 54.0362 47.5554C54.3699 46.9578 54.5369 46.219 54.5369 45.339C54.5369 44.701 54.4415 44.1419 54.2508 43.6616C54.06 43.1813 53.7849 42.7541 53.4254 42.3801C53.066 42.0061 52.635 41.6706 52.1325 41.3736C51.6299 41.0766 51.0632 40.7961 50.4323 40.5322C49.9701 40.3415 49.5556 40.1564 49.1888 39.9767C48.822 39.797 48.5102 39.6137 48.2535 39.4267C47.9967 39.2397 47.7986 39.0417 47.6592 38.8327C47.5199 38.6237 47.4501 38.3872 47.4501 38.1232C47.4501 37.8813 47.5125 37.6631 47.6372 37.4687C47.762 37.2744 47.938 37.1076 48.1654 36.9683C48.3929 36.829 48.6716 36.7208 49.0017 36.6438C49.3319 36.5668 49.6987 36.5283 50.1022 36.5283C50.3956 36.5283 50.7055 36.5503 51.032 36.5943C51.3585 36.6383 51.6867 36.7061 52.0169 36.7977C52.3471 36.8894 52.668 37.005 52.9798 37.1443C53.2916 37.2836 53.5795 37.4449 53.8436 37.6283V34.3393C53.3081 34.134 52.723 33.9819 52.0884 33.8829C51.4539 33.7839 50.7257 33.7344 49.9041 33.7344C49.0677 33.7344 48.2755 33.8242 47.5272 34.0039C46.7789 34.1835 46.1205 34.464 45.5519 34.8453C44.9834 35.2267 44.5341 35.7125 44.204 36.3028C43.8738 36.8931 43.7087 37.5989 43.7087 38.4202C43.7087 39.4689 44.0114 40.3635 44.6166 41.1042C45.2218 41.8448 46.1406 42.4718 47.3731 42.9851C47.8573 43.1831 48.3085 43.3774 48.7267 43.5681C49.1448 43.7588 49.5061 43.9568 49.8105 44.1621C50.115 44.3674 50.3552 44.591 50.5314 44.8331C50.7074 45.075 50.7955 45.35 50.7955 45.658C50.7955 45.8854 50.7404 46.0962 50.6304 46.2905C50.5203 46.4848 50.3534 46.6535 50.1297 46.7965C49.9059 46.9395 49.6272 47.0513 49.2934 47.1319C48.9595 47.2126 48.569 47.2529 48.1214 47.2529C47.3584 47.2529 46.6029 47.1191 45.8545 46.8515C45.1063 46.5838 44.413 46.1824 43.7748 45.647ZM37.8573 36.9745H42.3728V34.0859H29.7869V36.9745H34.2803V49.8359H37.8573V36.9745Z" fill="white"/>
</g>
<defs>
<filter id="filter0_dd_4_190" x="0.48999" y="0" width="78" height="78" filterUnits="userSpaceOnUse" color-interpolation-filters="sRGB">
<feFlood flood-opacity="0" result="BackgroundImageFix"/>
<feColorMatrix in="SourceAlpha" type="matrix" values="0 0 0 0 0 0 0 0 0 0 0 0 0 0 0 0 0 0 127 0" result="hardAlpha"/>
<feMorphology radius="2" operator="erode" in="SourceAlpha" result="effect1_dropShadow_4_190"/>
<feOffset dy="2"/>
<feGaussianBlur stdDeviation="2"/>
<feComposite in2="hardAlpha" operator="out"/>
<feColorMatrix type="matrix" values="0 0 0 0 0 0 0 0 0 0 0 0 0 0 0 0 0 0 0.1 0"/>
<feBlend mode="normal" in2="BackgroundImageFix" result="effect1_dropShadow_4_190"/>
<feColorMatrix in="SourceAlpha" type="matrix" values="0 0 0 0 0 0 0 0 0 0 0 0 0 0 0 0 0 0 127 0" result="hardAlpha"/>
<feMorphology radius="1" operator="erode" in="SourceAlpha" result="effect2_dropShadow_4_190"/>
<feOffset dy="4"/>
<feGaussianBlur stdDeviation="3"/>
<feComposite in2="hardAlpha" operator="out"/>
<feColorMatrix type="matrix" values="0 0 0 0 0 0 0 0 0 0 0 0 0 0 0 0 0 0 0.1 0"/>
<feBlend mode="normal" in2="effect1_dropShadow_4_190" result="effect2_dropShadow_4_190"/>
<feBlend mode="normal" in="SourceGraphic" in2="effect2_dropShadow_4_190" result="shape"/>
</filter>
</defs>
</svg>
