<svg width="79" height="78" viewBox="0 0 79 78" fill="none" xmlns="http://www.w3.org/2000/svg">
<g filter="url(#filter0_dd_4_195)">
<rect x="5.48999" y="1" width="68" height="68" rx="34" fill="white"/>
<path d="M21.5959 33.1367C21.5959 35.8389 24.2345 38.3612 28.3942 39.7831C27.5635 43.9649 28.2454 47.3355 30.5227 48.6488C32.8634 49.9988 36.3506 49.0644 39.6605 46.171C42.8869 48.9475 46.1475 50.0401 48.4228 48.7231C50.7614 47.3693 51.4726 43.7701 50.619 39.4577C54.9516 38.0253 57.3752 35.8744 57.3752 33.1367C57.3752 30.4973 54.7318 28.214 50.6281 26.8013C51.5471 22.3107 50.7685 19.0219 48.3968 17.6543C46.1104 16.3358 42.8118 17.485 39.538 20.3341C36.1321 17.3101 32.8661 16.3869 30.4969 17.7583C28.2126 19.0806 27.5608 22.5125 28.3942 26.7716C24.3748 28.173 21.5959 30.508 21.5959 33.1367Z" fill="white"/>
<path d="M49.7591 28.2042C49.4209 28.0882 49.0799 27.9807 48.7362 27.8819C48.7932 27.6503 48.8459 27.4177 48.8943 27.1842C49.6686 23.4256 49.1623 20.3977 47.4335 19.4009C45.7759 18.445 43.065 19.4417 40.327 21.8243C40.0572 22.0596 39.7934 22.3017 39.5358 22.5504C39.3634 22.385 39.1878 22.2229 39.0093 22.0641C36.1399 19.5162 33.2637 18.4427 31.5367 19.4424C29.8807 20.4011 29.3902 23.2477 30.0872 26.8098C30.1566 27.1625 30.2349 27.5134 30.3221 27.8622C29.9151 27.9778 29.5221 28.101 29.146 28.232C25.782 29.4049 23.6335 31.2431 23.6335 33.1497C23.6335 35.119 25.9398 37.0942 29.4439 38.2918C29.728 38.3884 30.0145 38.478 30.3031 38.5604C30.2094 38.9361 30.1261 39.3144 30.0535 39.6948C29.3889 43.195 29.908 45.9741 31.5596 46.9269C33.2655 47.9105 36.1286 46.8994 38.9167 44.4624C39.137 44.2698 39.3582 44.0654 39.5797 43.8513C39.8587 44.1204 40.1451 44.3818 40.4387 44.635C43.1392 46.9588 45.8063 47.8972 47.4565 46.9419C49.1609 45.9553 49.7147 42.9697 48.9955 39.3372C48.9407 39.0597 48.8767 38.7764 48.805 38.4878C49.0061 38.4285 49.2034 38.3672 49.3959 38.3033C53.0387 37.0965 55.4086 35.1453 55.4086 33.1497C55.4086 31.2362 53.191 29.3856 49.7591 28.2042Z" fill="#53C1DE"/>
<path d="M48.9691 37.0149C48.7954 37.0724 48.6171 37.128 48.4354 37.1818C48.0332 35.9088 47.4904 34.555 46.8264 33.1565C47.4602 31.791 47.9819 30.4546 48.3728 29.1897C48.6978 29.2839 49.0134 29.3831 49.3174 29.4878C52.2579 30.4999 54.0514 31.9966 54.0514 33.1497C54.0514 34.3781 52.1142 35.9728 48.9691 37.0149ZM47.6641 39.6009C47.982 41.2071 48.0275 42.6593 47.8168 43.7946C47.6275 44.8147 47.247 45.4948 46.7764 45.7671C45.7751 46.3468 43.6335 45.5933 41.3241 43.606C41.0593 43.3782 40.7926 43.1349 40.5251 42.8776C41.4205 41.8983 42.3153 40.7598 43.1885 39.4956C44.7247 39.3593 46.176 39.1364 47.4921 38.8322C47.5568 39.0938 47.6144 39.3501 47.6641 39.6009ZM34.4664 45.667C33.4881 46.0125 32.7089 46.0224 32.2379 45.7508C31.2356 45.1729 30.819 42.9411 31.3873 39.9479C31.4549 39.5942 31.5322 39.2424 31.6193 38.893C32.9208 39.1808 34.3615 39.388 35.9014 39.5128C36.7804 40.7499 37.7011 41.887 38.6289 42.8828C38.4317 43.0735 38.2299 43.2594 38.0235 43.4402C36.7907 44.518 35.5553 45.2824 34.4666 45.667H34.4664ZM29.883 37.0073C28.3336 36.4777 27.0541 35.7895 26.177 35.0386C25.3889 34.3636 24.991 33.6935 24.991 33.1497C24.991 31.9928 26.716 30.5169 29.5931 29.5138C29.9542 29.3885 30.3189 29.2737 30.6867 29.1697C31.0844 30.4631 31.606 31.8153 32.2354 33.1828C31.5978 34.5706 31.0688 35.9444 30.6674 37.2529C30.404 37.1775 30.1424 37.0956 29.883 37.0073ZM31.4195 26.5491C30.8223 23.4971 31.2188 21.1949 32.2168 20.6172C33.28 20.0018 35.6305 20.8793 38.108 23.0791C38.2664 23.2198 38.4254 23.367 38.5848 23.5193C37.6617 24.5106 36.7495 25.6391 35.878 26.869C34.3836 27.0075 32.953 27.23 31.6379 27.5279C31.5569 27.2035 31.4841 26.8772 31.4195 26.5491ZM45.1258 29.9335C44.8152 29.3969 44.493 28.8671 44.1596 28.3444C45.1735 28.4724 46.1448 28.6425 47.0569 28.8508C46.7831 29.7284 46.4418 30.6462 46.0399 31.5869C45.7462 31.0298 45.4415 30.4785 45.1258 29.9335ZM39.5364 24.4893C40.1624 25.1676 40.7895 25.925 41.4063 26.7466C40.1551 26.6875 38.9019 26.6872 37.6507 26.7458C38.2681 25.9317 38.9005 25.1754 39.5364 24.4893ZM33.9111 29.9428C33.5994 30.4834 33.3003 31.0313 33.0142 31.586C32.6189 30.6484 32.2807 29.7266 32.0045 28.8365C32.9111 28.6335 33.8779 28.4677 34.8852 28.3419C34.548 28.8678 34.2232 29.4016 33.9111 29.9428ZM34.9142 38.0544C33.8735 37.9383 32.8921 37.7809 31.9858 37.5836C32.2663 36.6777 32.612 35.7361 33.0157 34.7784C33.3031 35.3335 33.6034 35.8817 33.9166 36.4226C34.2361 36.9744 34.5687 37.5185 34.9142 38.0544ZM39.5739 41.906C38.9306 41.2117 38.2889 40.4439 37.6621 39.618C38.2705 39.6419 38.8908 39.654 39.5212 39.654C40.1689 39.654 40.8092 39.6396 41.4393 39.6114C40.8206 40.4524 40.1958 41.2213 39.5739 41.906ZM46.0528 34.7296C46.4775 35.6977 46.8355 36.6343 47.1199 37.5248C46.1985 37.7351 45.2038 37.9044 44.1558 38.0301C44.4916 37.4977 44.8169 36.9586 45.1313 36.4132C45.4509 35.8589 45.7582 35.2976 46.0528 34.7296ZM43.9554 35.7351C43.474 36.5713 42.9656 37.3915 42.431 38.1946C41.4882 38.262 40.514 38.2967 39.5212 38.2967C38.5324 38.2967 37.5706 38.2659 36.6443 38.2059C36.0958 37.4046 35.5778 36.5829 35.0914 35.7426C34.6072 34.9066 34.155 34.0526 33.7357 33.1823C34.154 32.3118 34.6048 31.4573 35.0873 30.6207V30.621C35.5696 29.7842 36.0835 28.966 36.628 28.1682C37.573 28.0968 38.5419 28.0594 39.5213 28.0594C40.5051 28.0594 41.4753 28.0971 42.42 28.1691C42.959 28.9656 43.4696 29.781 43.951 30.6135C44.4351 31.4483 44.892 32.2986 45.3208 33.1631C44.8964 34.0363 44.4409 34.8942 43.9554 35.7351ZM46.7556 20.5768C47.8196 21.1905 48.2335 23.6651 47.5649 26.9103C47.5211 27.1217 47.4735 27.3323 47.4221 27.542C46.1038 27.2378 44.6723 27.0114 43.1735 26.8708C42.3004 25.6275 41.3957 24.4971 40.4876 23.5186C40.7255 23.2892 40.9692 23.0657 41.2182 22.8484C43.5642 20.8068 45.7566 20.0007 46.7556 20.5768Z" fill="white"/>
<path d="M39.521 30.3123C41.0881 30.3123 42.3584 31.5827 42.3584 33.1496C42.3584 34.7168 41.0881 35.9872 39.521 35.9872C37.954 35.9872 36.6836 34.7168 36.6836 33.1496C36.6836 31.5827 37.954 30.3123 39.521 30.3123Z" fill="#53C1DE"/>
</g>
<defs>
<filter id="filter0_dd_4_195" x="0.48999" y="0" width="78" height="78" filterUnits="userSpaceOnUse" color-interpolation-filters="sRGB">
<feFlood flood-opacity="0" result="BackgroundImageFix"/>
<feColorMatrix in="SourceAlpha" type="matrix" values="0 0 0 0 0 0 0 0 0 0 0 0 0 0 0 0 0 0 127 0" result="hardAlpha"/>
<feMorphology radius="2" operator="erode" in="SourceAlpha" result="effect1_dropShadow_4_195"/>
<feOffset dy="2"/>
<feGaussianBlur stdDeviation="2"/>
<feComposite in2="hardAlpha" operator="out"/>
<feColorMatrix type="matrix" values="0 0 0 0 0 0 0 0 0 0 0 0 0 0 0 0 0 0 0.1 0"/>
<feBlend mode="normal" in2="BackgroundImageFix" result="effect1_dropShadow_4_195"/>
<feColorMatrix in="SourceAlpha" type="matrix" values="0 0 0 0 0 0 0 0 0 0 0 0 0 0 0 0 0 0 127 0" result="hardAlpha"/>
<feMorphology radius="1" operator="erode" in="SourceAlpha" result="effect2_dropShadow_4_195"/>
<feOffset dy="4"/>
<feGaussianBlur stdDeviation="3"/>
<feComposite in2="hardAlpha" operator="out"/>
<feColorMatrix type="matrix" values="0 0 0 0 0 0 0 0 0 0 0 0 0 0 0 0 0 0 0.1 0"/>
<feBlend mode="normal" in2="effect1_dropShadow_4_195" result="effect2_dropShadow_4_195"/>
<feBlend mode="normal" in="SourceGraphic" in2="effect2_dropShadow_4_195" result="shape"/>
</filter>
</defs>
</svg>
