<svg width="70" height="70" viewBox="0 0 70 70" fill="none" xmlns="http://www.w3.org/2000/svg">
<g filter="url(#filter0_dd_159_58)">
<rect x="5" y="1" width="60" height="60" rx="30" fill="white"/>
<path d="M32.0571 30.213C35.0795 27.3334 34.1572 23.7718 31.4199 19.4561C28.6826 15.1404 23.1724 13.605 22.1444 14.5844C21.1164 15.5639 20.8886 22.5663 23.6259 26.882C26.3632 31.1977 29.0347 33.0926 32.0571 30.213Z" fill="url(#paint0_linear_159_58)"/>
<path d="M34.6706 30.6115C36.9066 34.1368 39.8958 32.8478 43.5959 29.3225C47.296 25.7972 48.8302 19.0443 48.0697 17.8453C47.3092 16.6463 41.53 16.7064 37.8299 20.2317C34.1298 23.757 32.4346 27.0862 34.6706 30.6115Z" fill="url(#paint1_linear_159_58)"/>
<path d="M33.4479 28.6722C37.1607 29.128 38.6208 25.698 39.3016 20.1536C39.9823 14.6092 37.176 8.74908 35.9132 8.59403C34.6504 8.43899 30.408 13.4336 29.7273 18.978C29.0465 24.5224 29.7352 28.2163 33.4479 28.6722Z" fill="url(#paint2_linear_159_58)"/>
<path d="M32.5131 53.1911C40.2974 53.1911 46.6103 50.9298 46.6103 40.6749C46.6103 30.4199 40.2974 22.0048 32.5131 22.0048C24.7288 22.0048 18.4209 30.4199 18.4209 40.6749C18.4209 50.9298 24.7288 53.1911 32.5131 53.1911Z" fill="url(#paint3_linear_159_58)"/>
<path d="M39.6332 38.5812C40.7452 38.5812 41.6467 38.1619 41.6467 37.6447C41.6467 37.1275 40.7452 36.7082 39.6332 36.7082C38.5211 36.7082 37.6196 37.1275 37.6196 37.6447C37.6196 38.1619 38.5211 38.5812 39.6332 38.5812Z" fill="#EAADCC"/>
<path d="M24.7219 38.0123C25.8257 38.1478 26.7715 37.8415 26.8346 37.3282C26.8976 36.8148 26.0539 36.2887 24.9502 36.1532C23.8464 36.0177 22.9006 36.324 22.8375 36.8374C22.7745 37.3508 23.6182 37.8768 24.7219 38.0123Z" fill="#EAADCC"/>
<path d="M30.1707 36.7702C30.084 36.6415 29.9094 36.6075 29.7807 36.6942C29.652 36.7809 29.618 36.9555 29.7047 37.0842C30.1358 37.7239 30.7989 38.0952 31.6712 38.1949C32.5397 38.2941 33.3151 38.0716 33.9802 37.5311C34.1006 37.4332 34.1189 37.2563 34.021 37.1359C33.9231 37.0155 33.7462 36.9972 33.6258 37.095C33.0788 37.5396 32.4543 37.7188 31.735 37.6366C31.0194 37.5548 30.5056 37.2671 30.1707 36.7702Z" fill="black"/>
<path d="M26.0047 32.4394C26.5604 32.4199 27.0714 32.6276 27.4483 32.979C27.8251 33.3304 28.068 33.8256 28.0874 34.3813C28.1068 34.9371 27.8991 35.448 27.5477 35.8249C27.1962 36.2018 26.701 36.4445 26.1452 36.464C25.5895 36.4834 25.0786 36.2757 24.7018 35.9242C24.3249 35.5728 24.0822 35.0776 24.0628 34.5219C24.0434 33.9662 24.251 33.4553 24.6024 33.0784C24.9538 32.7015 25.449 32.4588 26.0047 32.4394Z" fill="black"/>
<path d="M26.1103 34.1225C26.0976 33.7607 25.7939 33.4775 25.4323 33.4902C25.0704 33.5028 24.7873 33.8064 24.7999 34.1682C24.8126 34.53 25.1162 34.8131 25.478 34.8005C25.8397 34.7878 26.1229 34.4843 26.1103 34.1225Z" fill="white"/>
<path d="M38.205 32.9504C38.7607 32.931 39.2716 33.1386 39.6485 33.4901C40.0254 33.8415 40.2681 34.3367 40.2876 34.8924C40.307 35.4481 40.0993 35.9591 39.7479 36.3359C39.3965 36.7128 38.9013 36.9556 38.3455 36.975C37.7898 36.9944 37.2789 36.7867 36.902 36.4353C36.5252 36.0839 36.2824 35.5886 36.263 35.0329C36.2435 34.4772 36.4512 33.9663 36.8027 33.5895C37.1541 33.2126 37.6493 32.9698 38.205 32.9504Z" fill="black"/>
<path d="M25.9905 32.0182C27.3346 31.9712 28.4622 33.0226 28.5091 34.3666C28.556 35.7107 27.5046 36.8382 26.1605 36.8851C24.8165 36.9321 23.6891 35.8806 23.6421 34.5366C23.5952 33.1926 24.6466 32.0651 25.9905 32.0182ZM27.6667 34.396C27.6361 33.5173 26.8988 32.8298 26.0199 32.8605C25.1412 32.8912 24.4538 33.6284 24.4845 34.5072C24.5152 35.386 25.2523 36.0735 26.1311 36.0428C27.0099 36.0121 27.6974 35.2749 27.6667 34.396Z" fill="white"/>
<path d="M38.1903 32.5292C39.5344 32.4822 40.6619 33.5336 40.7088 34.8776C40.7557 36.2217 39.7044 37.3492 38.3603 37.3961C37.0163 37.4431 35.8888 36.3916 35.8418 35.0476C35.7949 33.7036 36.8464 32.5761 38.1903 32.5292ZM39.8664 34.907C39.8358 34.0282 39.0986 33.3408 38.2198 33.3715C37.341 33.4022 36.6535 34.1394 36.6842 35.0182C36.7149 35.897 37.4521 36.5844 38.3309 36.5538C39.2097 36.5231 39.8971 35.7859 39.8664 34.907Z" fill="white"/>
<path d="M38.3105 34.6334C38.2978 34.2716 37.9942 33.9885 37.6324 34.0012C37.2706 34.0138 36.9875 34.3174 37.0001 34.6792C37.0128 35.041 37.3164 35.3241 37.6782 35.3115C38.04 35.2989 38.3231 34.9952 38.3105 34.6334Z" fill="white"/>
<path d="M22.2102 41.268L25.2653 44.4469L27.4573 42.115C27.6521 41.9078 27.9781 41.8977 28.1854 42.0925C28.3926 42.2874 28.4027 42.6133 28.2079 42.8206L25.98 45.1907L29.1405 48.4793C29.3376 48.6844 29.3311 49.0105 29.126 49.2076C28.9209 49.4047 28.5948 49.3982 28.3977 49.1931L25.2735 45.9422L23.8062 47.5032C23.6114 47.7105 23.2854 47.7206 23.0781 47.5258C22.8708 47.3309 22.8608 47.0049 23.0556 46.7977L24.5588 45.1985L21.4674 41.9819C21.2703 41.7768 21.2768 41.4507 21.4819 41.2536C21.687 41.0564 22.0131 41.0629 22.2102 41.268Z" fill="#ECB732"/>
<path d="M42.7268 41.268C42.9239 41.0629 43.25 41.0564 43.4551 41.2536C43.6602 41.4507 43.6667 41.7768 43.4696 41.9819L40.3782 45.1985L41.8814 46.7977C42.0708 46.9992 42.0666 47.3129 41.8757 47.5092L41.8589 47.5258C41.6516 47.7206 41.3256 47.7105 41.1308 47.5032L39.6634 45.9422L36.5393 49.1931C36.3477 49.3925 36.0341 49.4042 35.8284 49.2235L35.811 49.2076C35.6059 49.0105 35.5994 48.6844 35.7965 48.4793L38.9569 45.1907L36.7291 42.8206C36.5397 42.6191 36.544 42.3054 36.7348 42.1091L36.7517 42.0925C36.9589 41.8977 37.2849 41.9078 37.4798 42.115L39.6716 44.4469L42.7268 41.268Z" fill="#ECB732"/>
<path d="M35.6895 25.3398C35.8906 25.5409 35.8906 25.8671 35.6895 26.0682L33.291 28.4667L34.7529 29.9287C34.9485 30.1243 34.9539 30.438 34.7692 30.6401L34.7529 30.6572C34.5518 30.8583 34.2257 30.8583 34.0245 30.6572L32.5625 29.1953L31.1005 30.6572C30.8993 30.8583 30.5732 30.8583 30.3721 30.6572C30.1709 30.456 30.1709 30.1299 30.3721 29.9287L31.834 28.4667L29.4355 26.0682C29.24 25.8726 29.2345 25.5589 29.4192 25.3568L29.4355 25.3398C29.6367 25.1386 29.9628 25.1386 30.164 25.3398L32.5625 27.7382L34.961 25.3398C35.1622 25.1386 35.4883 25.1386 35.6895 25.3398Z" fill="#FFC73B"/>
</g>
<defs>
<filter id="filter0_dd_159_58" x="0" y="0" width="70" height="70" filterUnits="userSpaceOnUse" color-interpolation-filters="sRGB">
<feFlood flood-opacity="0" result="BackgroundImageFix"/>
<feColorMatrix in="SourceAlpha" type="matrix" values="0 0 0 0 0 0 0 0 0 0 0 0 0 0 0 0 0 0 127 0" result="hardAlpha"/>
<feMorphology radius="2" operator="erode" in="SourceAlpha" result="effect1_dropShadow_159_58"/>
<feOffset dy="2"/>
<feGaussianBlur stdDeviation="2"/>
<feComposite in2="hardAlpha" operator="out"/>
<feColorMatrix type="matrix" values="0 0 0 0 0 0 0 0 0 0 0 0 0 0 0 0 0 0 0.1 0"/>
<feBlend mode="normal" in2="BackgroundImageFix" result="effect1_dropShadow_159_58"/>
<feColorMatrix in="SourceAlpha" type="matrix" values="0 0 0 0 0 0 0 0 0 0 0 0 0 0 0 0 0 0 127 0" result="hardAlpha"/>
<feMorphology radius="1" operator="erode" in="SourceAlpha" result="effect2_dropShadow_159_58"/>
<feOffset dy="4"/>
<feGaussianBlur stdDeviation="3"/>
<feComposite in2="hardAlpha" operator="out"/>
<feColorMatrix type="matrix" values="0 0 0 0 0 0 0 0 0 0 0 0 0 0 0 0 0 0 0.1 0"/>
<feBlend mode="normal" in2="effect1_dropShadow_159_58" result="effect2_dropShadow_159_58"/>
<feBlend mode="normal" in="SourceGraphic" in2="effect2_dropShadow_159_58" result="shape"/>
</filter>
<linearGradient id="paint0_linear_159_58" x1="491.724" y1="-352.295" x2="647.006" y2="401.285" gradientUnits="userSpaceOnUse">
<stop stop-color="#52CE63"/>
<stop offset="1" stop-color="#51A256"/>
</linearGradient>
<linearGradient id="paint1_linear_159_58" x1="416.484" y1="489.389" x2="-337.185" y2="644.497" gradientUnits="userSpaceOnUse">
<stop stop-color="#52CE63"/>
<stop offset="1" stop-color="#51A256"/>
</linearGradient>
<linearGradient id="paint2_linear_159_58" x1="509.79" y1="66.7788" x2="364.803" y2="1247.6" gradientUnits="userSpaceOnUse">
<stop stop-color="#8AE99C"/>
<stop offset="1" stop-color="#52CE63"/>
</linearGradient>
<linearGradient id="paint3_linear_159_58" x1="1466.72" y1="566.908" x2="1232.71" y2="3136.76" gradientUnits="userSpaceOnUse">
<stop stop-color="#FFE56C"/>
<stop offset="1" stop-color="#FFC63A"/>
</linearGradient>
</defs>
</svg>
