<svg width="79" height="78" viewBox="0 0 79 78" fill="none" xmlns="http://www.w3.org/2000/svg">
<g filter="url(#filter0_dd_4_205)">
<rect x="5.48999" y="1" width="68" height="68" rx="34" fill="white"/>
<path d="M46.4342 41.7125C47.7627 41.5749 48.7705 40.4297 48.7247 39.0552C48.679 37.6809 47.5336 36.5813 46.1593 36.5813H46.0677C44.6474 36.6272 43.548 37.8183 43.5938 39.2384C43.6397 39.9257 43.9145 40.5212 44.3268 40.9335C42.7692 44.0031 40.387 46.2479 36.8138 48.1262C34.3857 49.409 31.8661 49.8672 29.3466 49.5465C27.285 49.2716 25.6816 48.3554 24.6736 46.8434C23.2077 44.5986 23.0703 42.1705 24.3073 39.7424C25.1777 38.0015 26.5519 36.7187 27.4224 36.0773C27.2392 35.4818 26.9642 34.4739 26.8268 33.741C20.1841 38.5513 20.8714 45.0568 22.8871 48.1262C24.3988 50.417 27.4682 51.8372 30.8583 51.8372C31.7745 51.8372 32.6906 51.7455 33.6069 51.5165C39.4709 50.3712 43.9146 46.8893 46.4342 41.7125ZM54.4971 36.0316C51.0153 31.9542 45.8845 29.7094 40.0206 29.7094H39.2876C38.8753 28.8848 38.0048 28.3349 37.0428 28.3349H36.9511C35.5311 28.3808 34.4317 29.5719 34.4774 30.9922C34.5233 32.3665 35.6685 33.4661 37.0428 33.4661H37.1344C38.1422 33.4202 39.0127 32.7788 39.3792 31.9084H40.2038C43.6855 31.9084 46.9839 32.9162 49.9618 34.8862C52.2523 36.3981 53.9015 38.3681 54.8177 40.7503C55.5965 42.6745 55.5506 44.5528 54.726 46.1563C53.4434 48.5844 51.2903 49.913 48.4499 49.913C46.6174 49.913 44.8766 49.3632 43.9603 48.9508C43.4565 49.409 42.5401 50.1419 41.8988 50.6002C43.8688 51.5164 45.8845 52.0204 47.8085 52.0204C52.2064 52.0204 55.4591 49.5922 56.696 47.1642C58.0245 44.507 57.9328 39.9257 54.4971 36.0316ZM31.2248 42.4911C31.2706 43.8656 32.4158 44.965 33.7902 44.965H33.8819C35.302 44.9193 36.4014 43.728 36.3556 42.3079C36.3099 40.9334 35.1645 39.834 33.7902 39.834H33.6986C33.6069 39.834 33.4694 39.834 33.378 39.8797C31.4997 36.7644 30.7209 33.3744 30.9958 29.7093C31.1789 26.9605 32.0952 24.5781 33.6986 22.6081C35.0271 20.913 37.5925 20.0884 39.3335 20.0427C44.1894 19.951 46.2508 25.9983 46.3883 28.4265C46.9839 28.5639 47.9918 28.8846 48.679 29.1137C48.1291 21.6921 43.548 17.8438 39.1502 17.8438C35.0271 17.8438 31.2248 20.8216 29.7129 25.2197C27.6056 31.0837 28.98 36.7187 31.5454 41.1626C31.3164 41.4832 31.1789 41.9871 31.2248 42.4911Z" fill="#764ABC"/>
</g>
<defs>
<filter id="filter0_dd_4_205" x="0.48999" y="0" width="78" height="78" filterUnits="userSpaceOnUse" color-interpolation-filters="sRGB">
<feFlood flood-opacity="0" result="BackgroundImageFix"/>
<feColorMatrix in="SourceAlpha" type="matrix" values="0 0 0 0 0 0 0 0 0 0 0 0 0 0 0 0 0 0 127 0" result="hardAlpha"/>
<feMorphology radius="2" operator="erode" in="SourceAlpha" result="effect1_dropShadow_4_205"/>
<feOffset dy="2"/>
<feGaussianBlur stdDeviation="2"/>
<feComposite in2="hardAlpha" operator="out"/>
<feColorMatrix type="matrix" values="0 0 0 0 0 0 0 0 0 0 0 0 0 0 0 0 0 0 0.1 0"/>
<feBlend mode="normal" in2="BackgroundImageFix" result="effect1_dropShadow_4_205"/>
<feColorMatrix in="SourceAlpha" type="matrix" values="0 0 0 0 0 0 0 0 0 0 0 0 0 0 0 0 0 0 127 0" result="hardAlpha"/>
<feMorphology radius="1" operator="erode" in="SourceAlpha" result="effect2_dropShadow_4_205"/>
<feOffset dy="4"/>
<feGaussianBlur stdDeviation="3"/>
<feComposite in2="hardAlpha" operator="out"/>
<feColorMatrix type="matrix" values="0 0 0 0 0 0 0 0 0 0 0 0 0 0 0 0 0 0 0.1 0"/>
<feBlend mode="normal" in2="effect1_dropShadow_4_205" result="effect2_dropShadow_4_205"/>
<feBlend mode="normal" in="SourceGraphic" in2="effect2_dropShadow_4_205" result="shape"/>
</filter>
</defs>
</svg>
