<svg width="24" height="24" viewBox="0 0 24 24" fill="none" xmlns="http://www.w3.org/2000/svg">
<path d="M11.9201 0.692139C18.1441 0.692139 23.1893 5.86463 23.1893 12.2464C23.1893 17.3502 19.9641 21.6799 15.4891 23.2091C14.9177 23.3229 14.7149 22.9621 14.7149 22.6545C14.7149 22.2736 14.7284 21.0295 14.7284 19.4833C14.7284 18.406 14.3678 17.7029 13.9632 17.3445C16.4729 17.0583 19.1099 16.0811 19.1099 11.6433C19.1099 10.3812 18.6726 9.35121 17.9491 8.54208C18.0663 8.2502 18.4529 7.07497 17.8387 5.48376C17.8387 5.48376 16.8943 5.17416 14.743 6.66846C13.8426 6.41265 12.878 6.28394 11.9201 6.27943C10.9622 6.28394 9.9987 6.41265 9.09942 6.66846C6.94587 5.17416 5.99925 5.48376 5.99925 5.48376C5.38734 7.07497 5.77387 8.2502 5.88994 8.54208C5.16984 9.35121 4.72921 10.3812 4.72921 11.6433C4.72921 16.0699 7.36058 17.062 9.86347 17.3539C9.54117 17.6424 9.2493 18.1513 9.14787 18.8984C8.50553 19.1937 6.87374 19.7047 5.86853 17.9388C5.86853 17.9388 5.27239 16.8286 4.14096 16.7475C4.14096 16.7475 3.04221 16.7329 4.06433 17.4496C4.06433 17.4496 4.80246 17.8046 5.31521 19.14C5.31521 19.14 5.97672 21.2022 9.11181 20.5035C9.11745 21.4693 9.12759 22.3795 9.12759 22.6545C9.12759 22.9599 8.92023 23.3173 8.3579 23.2102C3.87951 21.6832 0.650879 17.3513 0.650879 12.2464C0.650879 5.86463 5.69724 0.692139 11.9201 0.692139Z" fill="black"/>
</svg>
