<svg width="64" height="64" viewBox="0 0 64 64" fill="none" xmlns="http://www.w3.org/2000/svg">
<path d="M31.7824 0.0217285C49.2579 0.0217285 63.4237 14.5449 63.4237 32.4633C63.4237 46.7937 54.368 58.9504 41.8032 63.2441C40.199 63.5637 39.6295 62.5505 39.6295 61.6867C39.6295 60.6173 39.6674 57.1242 39.6674 52.783C39.6674 49.7581 38.6549 47.7838 37.519 46.7776C44.5655 45.9739 51.9696 43.2304 51.9696 30.77C51.9696 27.2262 50.7419 24.3343 48.7105 22.0625C49.0396 21.243 50.1249 17.9432 48.4004 13.4755C48.4004 13.4755 45.7489 12.6062 39.7086 16.8018C37.1804 16.0836 34.4719 15.7222 31.7824 15.7095C29.0929 15.7222 26.3876 16.0836 23.8626 16.8018C17.816 12.6062 15.1581 13.4755 15.1581 13.4755C13.44 17.9432 14.5253 21.243 14.8512 22.0625C12.8293 24.3343 11.5921 27.2262 11.5921 30.77C11.5921 43.1987 18.9804 45.9844 26.0079 46.8039C25.1029 47.6139 24.2834 49.0429 23.9987 51.1407C22.1951 51.9697 17.6134 53.4044 14.791 48.4462C14.791 48.4462 13.1172 45.3291 9.94043 45.1013C9.94043 45.1013 6.8554 45.0603 9.72526 47.0727C9.72526 47.0727 11.7978 48.0694 13.2374 51.8189C13.2374 51.8189 15.0948 57.6092 23.8974 55.6474C23.9132 58.3591 23.9417 60.9147 23.9417 61.6867C23.9417 62.5442 23.3595 63.5478 21.7806 63.2472C9.20634 58.9598 0.141113 46.7969 0.141113 32.4633C0.141113 14.5449 14.3101 0.0217285 31.7824 0.0217285Z" fill="url(#paint0_linear_55_123)"/>
<defs>
<linearGradient id="paint0_linear_55_123" x1="0.141113" y1="63.3044" x2="24.8391" y2="-3.99692" gradientUnits="userSpaceOnUse">
<stop stop-color="#1D2F6F"/>
<stop offset="1" stop-color="#8390FA"/>
</linearGradient>
</defs>
</svg>
