<svg width="65" height="65" viewBox="0 0 65 65" fill="none" xmlns="http://www.w3.org/2000/svg">
<path d="M34.7633 28.8435V28.7498C34.7441 28.7812 34.7176 28.8127 34.7009 28.8435H34.7633Z" fill="url(#paint0_linear_55_126)"/>
<path d="M0.0107422 0.0217285V64.1956H64.1847V0.0217285H0.0107422ZM19.9712 53.3357H10.4501V24.6907H19.9712V53.3357ZM15.2107 20.7811H15.1477C11.9539 20.7811 9.88365 18.5807 9.88365 15.8304C9.88365 13.0197 12.0144 10.8816 15.273 10.8816C18.5323 10.8816 20.5353 13.0197 20.5976 15.8304C20.5976 18.5807 18.5323 20.7811 15.2107 20.7811ZM54.3117 53.3357H44.7881V38.0106C44.7881 34.1614 43.4121 31.5339 39.9651 31.5339C37.3327 31.5339 35.7684 33.303 35.0793 35.0167C34.8288 35.6288 34.7634 36.4797 34.7634 37.3381V53.3359H25.2379C25.2379 53.3359 25.3655 27.3782 25.2379 24.6909H34.7634V28.7499C36.029 26.8026 38.2875 24.0184 43.3466 24.0184C49.6141 24.0184 54.3117 28.1114 54.3117 36.9093V53.3357Z" fill="url(#paint1_linear_55_126)"/>
<defs>
<linearGradient id="paint0_linear_55_126" x1="34.7009" y1="28.8435" x2="34.7488" y2="28.7568" gradientUnits="userSpaceOnUse">
<stop stop-color="#1D2F6F"/>
<stop offset="1" stop-color="#8390FA"/>
</linearGradient>
<linearGradient id="paint1_linear_55_126" x1="0.0107421" y1="64.1956" x2="25.0566" y2="-4.05354" gradientUnits="userSpaceOnUse">
<stop stop-color="#1D2F6F"/>
<stop offset="1" stop-color="#8390FA"/>
</linearGradient>
</defs>
</svg>
